<mxfile host="app.diagrams.net" modified="2021-10-16T00:44:07.466Z" agent="5.0 (Windows NT 10.0; Win64; x64) AppleWebKit/537.36 (KHTML, like Gecko) Chrome/93.0.4577.82 Safari/537.36" etag="V0lyU_ktbq7T4B96r4Tb" version="15.5.4" type="github" pages="4">
  <diagram id="GP3PnQ0_UZ8DqC637AFE" name="1">
    <mxGraphModel dx="868" dy="498" grid="1" gridSize="10" guides="1" tooltips="1" connect="1" arrows="1" fold="1" page="1" pageScale="1" pageWidth="1600" pageHeight="1200" math="0" shadow="0">
      <root>
        <mxCell id="DS9_35YTeVJHQRKozS6N-0" />
        <mxCell id="DS9_35YTeVJHQRKozS6N-1" parent="DS9_35YTeVJHQRKozS6N-0" />
      </root>
    </mxGraphModel>
  </diagram>
  <diagram id="k7m01lWhZGyPnVQjTyj0" name="2">
    <mxGraphModel dx="1240" dy="711" grid="1" gridSize="10" guides="1" tooltips="1" connect="1" arrows="1" fold="1" page="1" pageScale="1" pageWidth="1600" pageHeight="1200" background="#DAD2D8" math="0" shadow="0">
      <root>
        <mxCell id="0" />
        <mxCell id="1" parent="0" />
        <mxCell id="FrGdiXdgHyBI-WpfrZmk-40" value="" style="edgeStyle=orthogonalEdgeStyle;curved=0;rounded=1;sketch=0;orthogonalLoop=1;jettySize=auto;html=1;fontColor=#143642;strokeColor=#A8201A;fillColor=#FAE5C7;labelBackgroundColor=#DAD2D8;" edge="1" parent="1" source="hpM_4bH_3X7jpKGeUaUQ-1" target="FrGdiXdgHyBI-WpfrZmk-39">
          <mxGeometry relative="1" as="geometry" />
        </mxCell>
        <mxCell id="hpM_4bH_3X7jpKGeUaUQ-1" value="START" style="strokeWidth=2;html=1;shape=mxgraph.flowchart.start_1;whiteSpace=wrap;fillColor=#FAE5C7;strokeColor=#0F8B8D;fontColor=#143642;rounded=1;" vertex="1" parent="1">
          <mxGeometry x="870" y="330" width="100" height="60" as="geometry" />
        </mxCell>
        <mxCell id="hpM_4bH_3X7jpKGeUaUQ-12" value="" style="edgeStyle=orthogonalEdgeStyle;orthogonalLoop=1;jettySize=auto;html=1;strokeColor=#A8201A;fontColor=#143642;labelBackgroundColor=#DAD2D8;" edge="1" parent="1" source="hpM_4bH_3X7jpKGeUaUQ-9" target="hpM_4bH_3X7jpKGeUaUQ-11">
          <mxGeometry relative="1" as="geometry" />
        </mxCell>
        <mxCell id="hpM_4bH_3X7jpKGeUaUQ-9" value="Accept logon info&amp;nbsp;" style="whiteSpace=wrap;html=1;strokeWidth=2;arcSize=12;fillColor=#FAE5C7;strokeColor=#0F8B8D;fontColor=#143642;rounded=1;" vertex="1" parent="1">
          <mxGeometry x="860" y="610" width="120" height="60" as="geometry" />
        </mxCell>
        <mxCell id="hpM_4bH_3X7jpKGeUaUQ-14" value="" style="edgeStyle=orthogonalEdgeStyle;orthogonalLoop=1;jettySize=auto;html=1;strokeColor=#A8201A;fontColor=#143642;labelBackgroundColor=#DAD2D8;" edge="1" parent="1" source="hpM_4bH_3X7jpKGeUaUQ-11" target="hpM_4bH_3X7jpKGeUaUQ-13">
          <mxGeometry relative="1" as="geometry" />
        </mxCell>
        <mxCell id="hpM_4bH_3X7jpKGeUaUQ-11" value="Validate if account exist" style="whiteSpace=wrap;html=1;strokeWidth=2;arcSize=12;fillColor=#FAE5C7;strokeColor=#0F8B8D;fontColor=#143642;rounded=1;" vertex="1" parent="1">
          <mxGeometry x="860" y="720" width="120" height="60" as="geometry" />
        </mxCell>
        <mxCell id="hpM_4bH_3X7jpKGeUaUQ-18" value="No" style="edgeStyle=orthogonalEdgeStyle;orthogonalLoop=1;jettySize=auto;html=1;entryX=1;entryY=0.5;entryDx=0;entryDy=0;entryPerimeter=0;strokeColor=#A8201A;fontColor=#143642;labelBackgroundColor=#DAD2D8;" edge="1" parent="1" source="hpM_4bH_3X7jpKGeUaUQ-13" target="hpM_4bH_3X7jpKGeUaUQ-16">
          <mxGeometry relative="1" as="geometry" />
        </mxCell>
        <mxCell id="3eU7zdn0o-lwysReG03A-21" value="" style="edgeStyle=orthogonalEdgeStyle;orthogonalLoop=1;jettySize=auto;html=1;fontColor=#143642;strokeColor=#A8201A;fillColor=#FAE5C7;entryX=0;entryY=0.5;entryDx=0;entryDy=0;entryPerimeter=0;labelBackgroundColor=#DAD2D8;" edge="1" parent="1" source="hpM_4bH_3X7jpKGeUaUQ-13" target="FrGdiXdgHyBI-WpfrZmk-42">
          <mxGeometry relative="1" as="geometry">
            <mxPoint x="1070" y="885" as="targetPoint" />
          </mxGeometry>
        </mxCell>
        <mxCell id="hpM_4bH_3X7jpKGeUaUQ-13" value="Does it exists?" style="rhombus;whiteSpace=wrap;html=1;strokeWidth=2;arcSize=12;fillColor=#FAE5C7;strokeColor=#0F8B8D;fontColor=#143642;rounded=1;" vertex="1" parent="1">
          <mxGeometry x="860" y="830" width="120" height="110" as="geometry" />
        </mxCell>
        <mxCell id="hpM_4bH_3X7jpKGeUaUQ-19" style="edgeStyle=orthogonalEdgeStyle;orthogonalLoop=1;jettySize=auto;html=1;strokeColor=#A8201A;fontColor=#143642;labelBackgroundColor=#DAD2D8;" edge="1" parent="1" source="hpM_4bH_3X7jpKGeUaUQ-16">
          <mxGeometry relative="1" as="geometry">
            <mxPoint x="920" y="410" as="targetPoint" />
            <Array as="points">
              <mxPoint x="710" y="410" />
            </Array>
          </mxGeometry>
        </mxCell>
        <mxCell id="hpM_4bH_3X7jpKGeUaUQ-16" value="Invalid logon message" style="strokeWidth=2;html=1;shape=mxgraph.flowchart.display;whiteSpace=wrap;fillColor=#FAE5C7;strokeColor=#0F8B8D;fontColor=#143642;rounded=1;" vertex="1" parent="1">
          <mxGeometry x="630" y="842.5" width="160" height="85" as="geometry" />
        </mxCell>
        <mxCell id="hpM_4bH_3X7jpKGeUaUQ-26" value="" style="edgeStyle=orthogonalEdgeStyle;orthogonalLoop=1;jettySize=auto;html=1;strokeColor=#A8201A;fontColor=#143642;labelBackgroundColor=#DAD2D8;" edge="1" parent="1" source="hpM_4bH_3X7jpKGeUaUQ-24" target="hpM_4bH_3X7jpKGeUaUQ-25">
          <mxGeometry relative="1" as="geometry" />
        </mxCell>
        <mxCell id="hpM_4bH_3X7jpKGeUaUQ-24" value="Determine if what account it is" style="whiteSpace=wrap;html=1;fillColor=#FAE5C7;strokeColor=#0F8B8D;fontColor=#143642;rounded=1;" vertex="1" parent="1">
          <mxGeometry x="1275" y="852.5" width="130" height="65" as="geometry" />
        </mxCell>
        <mxCell id="hpM_4bH_3X7jpKGeUaUQ-28" value="No" style="edgeStyle=orthogonalEdgeStyle;orthogonalLoop=1;jettySize=auto;html=1;strokeColor=#A8201A;fontColor=#143642;labelBackgroundColor=#DAD2D8;" edge="1" parent="1" source="hpM_4bH_3X7jpKGeUaUQ-25" target="hpM_4bH_3X7jpKGeUaUQ-27">
          <mxGeometry relative="1" as="geometry" />
        </mxCell>
        <mxCell id="FrGdiXdgHyBI-WpfrZmk-4" value="Yes" style="edgeStyle=orthogonalEdgeStyle;curved=0;rounded=1;sketch=0;orthogonalLoop=1;jettySize=auto;html=1;fontColor=#143642;strokeColor=#A8201A;fillColor=#FAE5C7;labelBackgroundColor=#DAD2D8;" edge="1" parent="1" source="hpM_4bH_3X7jpKGeUaUQ-25" target="FrGdiXdgHyBI-WpfrZmk-3">
          <mxGeometry relative="1" as="geometry" />
        </mxCell>
        <mxCell id="hpM_4bH_3X7jpKGeUaUQ-25" value="Project Director?" style="rhombus;whiteSpace=wrap;html=1;fillColor=#FAE5C7;strokeColor=#0F8B8D;fontColor=#143642;rounded=1;" vertex="1" parent="1">
          <mxGeometry x="1450" y="833.75" width="90" height="102.5" as="geometry" />
        </mxCell>
        <mxCell id="hpM_4bH_3X7jpKGeUaUQ-31" value="No" style="edgeStyle=orthogonalEdgeStyle;orthogonalLoop=1;jettySize=auto;html=1;entryX=0;entryY=0.5;entryDx=0;entryDy=0;strokeColor=#A8201A;fontColor=#143642;labelBackgroundColor=#DAD2D8;" edge="1" parent="1" source="hpM_4bH_3X7jpKGeUaUQ-27" target="hpM_4bH_3X7jpKGeUaUQ-29">
          <mxGeometry relative="1" as="geometry" />
        </mxCell>
        <mxCell id="FrGdiXdgHyBI-WpfrZmk-26" value="" style="edgeStyle=orthogonalEdgeStyle;curved=0;rounded=1;sketch=0;orthogonalLoop=1;jettySize=auto;html=1;fontColor=#143642;strokeColor=#A8201A;fillColor=#FAE5C7;labelBackgroundColor=#DAD2D8;" edge="1" parent="1" source="hpM_4bH_3X7jpKGeUaUQ-27" target="FrGdiXdgHyBI-WpfrZmk-25">
          <mxGeometry relative="1" as="geometry" />
        </mxCell>
        <mxCell id="hpM_4bH_3X7jpKGeUaUQ-27" value="Project Manager?" style="rhombus;whiteSpace=wrap;html=1;fillColor=#FAE5C7;strokeColor=#0F8B8D;fontColor=#143642;rounded=1;" vertex="1" parent="1">
          <mxGeometry x="1764" y="833.75" width="90" height="105" as="geometry" />
        </mxCell>
        <mxCell id="FrGdiXdgHyBI-WpfrZmk-53" value="" style="edgeStyle=orthogonalEdgeStyle;curved=0;rounded=1;sketch=0;orthogonalLoop=1;jettySize=auto;html=1;fontColor=#143642;strokeColor=#A8201A;fillColor=#FAE5C7;entryX=0.5;entryY=0;entryDx=0;entryDy=0;labelBackgroundColor=#DAD2D8;" edge="1" parent="1" source="hpM_4bH_3X7jpKGeUaUQ-29" target="FrGdiXdgHyBI-WpfrZmk-55">
          <mxGeometry relative="1" as="geometry">
            <mxPoint x="2330" y="1008.75" as="targetPoint" />
          </mxGeometry>
        </mxCell>
        <mxCell id="hpM_4bH_3X7jpKGeUaUQ-29" value="Project Leader?" style="rhombus;whiteSpace=wrap;html=1;fillColor=#FAE5C7;strokeColor=#0F8B8D;fontColor=#143642;rounded=1;" vertex="1" parent="1">
          <mxGeometry x="2290" y="833.75" width="80" height="105" as="geometry" />
        </mxCell>
        <mxCell id="3eU7zdn0o-lwysReG03A-89" value="" style="edgeStyle=orthogonalEdgeStyle;curved=0;rounded=1;sketch=0;orthogonalLoop=1;jettySize=auto;html=1;fontColor=#143642;strokeColor=#A8201A;fillColor=#FAE5C7;labelBackgroundColor=#DAD2D8;" edge="1" parent="1" source="hpM_4bH_3X7jpKGeUaUQ-34" target="3eU7zdn0o-lwysReG03A-88">
          <mxGeometry relative="1" as="geometry" />
        </mxCell>
        <mxCell id="hpM_4bH_3X7jpKGeUaUQ-34" value="Prompt Project Director to create Project Profile" style="whiteSpace=wrap;html=1;fillColor=#FAE5C7;strokeColor=#0F8B8D;fontColor=#143642;rounded=1;" vertex="1" parent="1">
          <mxGeometry x="1391" y="1220" width="120" height="60" as="geometry" />
        </mxCell>
        <mxCell id="hpM_4bH_3X7jpKGeUaUQ-40" value="No" style="edgeStyle=orthogonalEdgeStyle;orthogonalLoop=1;jettySize=auto;html=1;entryX=1;entryY=0.5;entryDx=0;entryDy=0;entryPerimeter=0;strokeColor=#A8201A;fontColor=#143642;labelBackgroundColor=#DAD2D8;" edge="1" parent="1" source="hpM_4bH_3X7jpKGeUaUQ-36" target="hpM_4bH_3X7jpKGeUaUQ-38">
          <mxGeometry relative="1" as="geometry" />
        </mxCell>
        <mxCell id="hpM_4bH_3X7jpKGeUaUQ-43" value="Yes" style="edgeStyle=orthogonalEdgeStyle;orthogonalLoop=1;jettySize=auto;html=1;strokeColor=#A8201A;fontColor=#143642;labelBackgroundColor=#DAD2D8;" edge="1" parent="1" source="hpM_4bH_3X7jpKGeUaUQ-36" target="hpM_4bH_3X7jpKGeUaUQ-42">
          <mxGeometry relative="1" as="geometry" />
        </mxCell>
        <mxCell id="hpM_4bH_3X7jpKGeUaUQ-36" value="Received?" style="rhombus;whiteSpace=wrap;html=1;fillColor=#FAE5C7;strokeColor=#0F8B8D;fontColor=#143642;rounded=1;" vertex="1" parent="1">
          <mxGeometry x="1380" y="1582.5" width="80" height="80" as="geometry" />
        </mxCell>
        <mxCell id="3eU7zdn0o-lwysReG03A-7" style="edgeStyle=orthogonalEdgeStyle;orthogonalLoop=1;jettySize=auto;html=1;fontColor=#143642;strokeColor=#A8201A;fillColor=#FAE5C7;exitX=0.5;exitY=0;exitDx=0;exitDy=0;exitPerimeter=0;labelBackgroundColor=#DAD2D8;" edge="1" parent="1" source="hpM_4bH_3X7jpKGeUaUQ-38">
          <mxGeometry relative="1" as="geometry">
            <mxPoint x="1451" y="1180" as="targetPoint" />
            <mxPoint x="1271.0344827586207" y="1343.75" as="sourcePoint" />
            <Array as="points">
              <mxPoint x="1250" y="1180" />
            </Array>
          </mxGeometry>
        </mxCell>
        <mxCell id="hpM_4bH_3X7jpKGeUaUQ-38" value="Timeoout message" style="strokeWidth=2;html=1;shape=mxgraph.flowchart.display;whiteSpace=wrap;fillColor=#FAE5C7;strokeColor=#0F8B8D;fontColor=#143642;rounded=1;" vertex="1" parent="1">
          <mxGeometry x="1185" y="1586.25" width="130" height="72.5" as="geometry" />
        </mxCell>
        <mxCell id="hpM_4bH_3X7jpKGeUaUQ-45" value="" style="edgeStyle=orthogonalEdgeStyle;orthogonalLoop=1;jettySize=auto;html=1;strokeColor=#A8201A;fontColor=#143642;labelBackgroundColor=#DAD2D8;" edge="1" parent="1" source="hpM_4bH_3X7jpKGeUaUQ-42" target="hpM_4bH_3X7jpKGeUaUQ-44">
          <mxGeometry relative="1" as="geometry" />
        </mxCell>
        <mxCell id="hpM_4bH_3X7jpKGeUaUQ-42" value="Accept Project info" style="whiteSpace=wrap;html=1;fillColor=#FAE5C7;strokeColor=#0F8B8D;fontColor=#143642;rounded=1;" vertex="1" parent="1">
          <mxGeometry x="1360" y="1732.5" width="120" height="60" as="geometry" />
        </mxCell>
        <mxCell id="hpM_4bH_3X7jpKGeUaUQ-47" value="" style="edgeStyle=orthogonalEdgeStyle;orthogonalLoop=1;jettySize=auto;html=1;strokeColor=#A8201A;fontColor=#143642;labelBackgroundColor=#DAD2D8;" edge="1" parent="1" source="hpM_4bH_3X7jpKGeUaUQ-44" target="hpM_4bH_3X7jpKGeUaUQ-46">
          <mxGeometry relative="1" as="geometry" />
        </mxCell>
        <mxCell id="hpM_4bH_3X7jpKGeUaUQ-44" value="Create&lt;br&gt;Project Profile" style="whiteSpace=wrap;html=1;fillColor=#FAE5C7;strokeColor=#0F8B8D;fontColor=#143642;rounded=1;" vertex="1" parent="1">
          <mxGeometry x="1360" y="1852.5" width="120" height="60" as="geometry" />
        </mxCell>
        <mxCell id="3eU7zdn0o-lwysReG03A-2" value="No" style="edgeStyle=orthogonalEdgeStyle;orthogonalLoop=1;jettySize=auto;html=1;entryX=1;entryY=0.5;entryDx=0;entryDy=0;entryPerimeter=0;fontColor=#143642;strokeColor=#A8201A;fillColor=#FAE5C7;exitX=0;exitY=0.5;exitDx=0;exitDy=0;labelBackgroundColor=#DAD2D8;" edge="1" parent="1" source="hpM_4bH_3X7jpKGeUaUQ-46" target="3eU7zdn0o-lwysReG03A-1">
          <mxGeometry relative="1" as="geometry" />
        </mxCell>
        <mxCell id="3eU7zdn0o-lwysReG03A-11" value="Yes" style="edgeStyle=orthogonalEdgeStyle;orthogonalLoop=1;jettySize=auto;html=1;entryX=0.5;entryY=0;entryDx=0;entryDy=0;entryPerimeter=0;fontColor=#143642;strokeColor=#A8201A;fillColor=#FAE5C7;labelBackgroundColor=#DAD2D8;" edge="1" parent="1" source="hpM_4bH_3X7jpKGeUaUQ-46" target="FrGdiXdgHyBI-WpfrZmk-43">
          <mxGeometry relative="1" as="geometry">
            <mxPoint x="1420.68" y="2118.04" as="targetPoint" />
          </mxGeometry>
        </mxCell>
        <mxCell id="hpM_4bH_3X7jpKGeUaUQ-46" value="Profile Created?" style="rhombus;whiteSpace=wrap;html=1;fillColor=#FAE5C7;strokeColor=#0F8B8D;fontColor=#143642;rounded=1;" vertex="1" parent="1">
          <mxGeometry x="1380" y="1972.5" width="80" height="80" as="geometry" />
        </mxCell>
        <mxCell id="3eU7zdn0o-lwysReG03A-9" value="" style="edgeStyle=orthogonalEdgeStyle;orthogonalLoop=1;jettySize=auto;html=1;fontColor=#143642;strokeColor=#A8201A;fillColor=#FAE5C7;labelBackgroundColor=#DAD2D8;" edge="1" parent="1" source="3eU7zdn0o-lwysReG03A-1" target="3eU7zdn0o-lwysReG03A-8">
          <mxGeometry relative="1" as="geometry" />
        </mxCell>
        <mxCell id="3eU7zdn0o-lwysReG03A-1" value="Error message" style="strokeWidth=2;html=1;shape=mxgraph.flowchart.display;whiteSpace=wrap;fontColor=#143642;fillColor=#FAE5C7;strokeColor=#0F8B8D;rounded=1;" vertex="1" parent="1">
          <mxGeometry x="1215" y="1982.5" width="100" height="60" as="geometry" />
        </mxCell>
        <mxCell id="3eU7zdn0o-lwysReG03A-8" value="&#xa;&#xa;&lt;span style=&quot;color: rgb(29, 53, 87); font-family: helvetica; font-size: 12px; font-style: normal; font-weight: 400; letter-spacing: normal; text-align: center; text-indent: 0px; text-transform: none; word-spacing: 0px; display: inline; float: none;&quot;&gt;Prompt Project Director to create Project Profile&lt;/span&gt;&#xa;&#xa;" style="shape=process;whiteSpace=wrap;html=1;backgroundOutline=1;fontColor=#143642;strokeColor=#0F8B8D;strokeWidth=2;fillColor=#FAE5C7;labelBackgroundColor=none;rounded=1;" vertex="1" parent="1">
          <mxGeometry x="1015" y="1977.5" width="130" height="70" as="geometry" />
        </mxCell>
        <mxCell id="3eU7zdn0o-lwysReG03A-13" value="Yes" style="edgeStyle=orthogonalEdgeStyle;orthogonalLoop=1;jettySize=auto;html=1;fontColor=#143642;strokeColor=#A8201A;fillColor=#FAE5C7;exitX=0;exitY=0.5;exitDx=0;exitDy=0;labelBackgroundColor=#DAD2D8;" edge="1" parent="1" source="3eU7zdn0o-lwysReG03A-52" target="3eU7zdn0o-lwysReG03A-12">
          <mxGeometry x="-0.3497" relative="1" as="geometry">
            <mxPoint x="1180" y="2772" as="sourcePoint" />
            <mxPoint as="offset" />
          </mxGeometry>
        </mxCell>
        <mxCell id="3eU7zdn0o-lwysReG03A-19" value="" style="edgeStyle=orthogonalEdgeStyle;orthogonalLoop=1;jettySize=auto;html=1;fontColor=#143642;strokeColor=#A8201A;fillColor=#FAE5C7;labelBackgroundColor=#DAD2D8;" edge="1" parent="1" source="3eU7zdn0o-lwysReG03A-12" target="3eU7zdn0o-lwysReG03A-18">
          <mxGeometry relative="1" as="geometry" />
        </mxCell>
        <mxCell id="3eU7zdn0o-lwysReG03A-12" value="Prompt Project Director to create a team" style="whiteSpace=wrap;html=1;fontColor=#143642;strokeColor=#0F8B8D;strokeWidth=2;fillColor=#FAE5C7;rounded=1;" vertex="1" parent="1">
          <mxGeometry x="1055" y="2820.5" width="120" height="60" as="geometry" />
        </mxCell>
        <mxCell id="3eU7zdn0o-lwysReG03A-24" value="" style="edgeStyle=orthogonalEdgeStyle;orthogonalLoop=1;jettySize=auto;html=1;fontColor=#143642;strokeColor=#A8201A;fillColor=#FAE5C7;labelBackgroundColor=#DAD2D8;" edge="1" parent="1" source="3eU7zdn0o-lwysReG03A-18" target="3eU7zdn0o-lwysReG03A-23">
          <mxGeometry relative="1" as="geometry" />
        </mxCell>
        <mxCell id="3eU7zdn0o-lwysReG03A-18" value="Enter name&lt;br&gt;for the team" style="shape=parallelogram;perimeter=parallelogramPerimeter;html=1;fixedSize=1;fontColor=#143642;strokeColor=#0F8B8D;strokeWidth=2;fillColor=#FAE5C7;whiteSpace=wrap;rounded=1;" vertex="1" parent="1">
          <mxGeometry x="1045" y="2936.5" width="140" height="72.5" as="geometry" />
        </mxCell>
        <mxCell id="3eU7zdn0o-lwysReG03A-22" style="edgeStyle=orthogonalEdgeStyle;orthogonalLoop=1;jettySize=auto;html=1;entryX=0;entryY=0.5;entryDx=0;entryDy=0;fontColor=#143642;strokeColor=#A8201A;fillColor=#FAE5C7;exitX=1;exitY=0.5;exitDx=0;exitDy=0;exitPerimeter=0;labelBackgroundColor=#DAD2D8;" edge="1" parent="1" source="FrGdiXdgHyBI-WpfrZmk-42" target="hpM_4bH_3X7jpKGeUaUQ-24">
          <mxGeometry relative="1" as="geometry">
            <mxPoint x="1170" y="885" as="sourcePoint" />
          </mxGeometry>
        </mxCell>
        <mxCell id="3eU7zdn0o-lwysReG03A-26" value="No" style="edgeStyle=orthogonalEdgeStyle;orthogonalLoop=1;jettySize=auto;html=1;entryX=1;entryY=0.5;entryDx=0;entryDy=0;entryPerimeter=0;fontColor=#143642;strokeColor=#A8201A;fillColor=#FAE5C7;labelBackgroundColor=#DAD2D8;" edge="1" parent="1" source="3eU7zdn0o-lwysReG03A-23" target="3eU7zdn0o-lwysReG03A-25">
          <mxGeometry relative="1" as="geometry" />
        </mxCell>
        <mxCell id="3eU7zdn0o-lwysReG03A-31" value="yes" style="edgeStyle=orthogonalEdgeStyle;orthogonalLoop=1;jettySize=auto;html=1;fontColor=#143642;strokeColor=#A8201A;fillColor=#FAE5C7;labelBackgroundColor=#DAD2D8;" edge="1" parent="1" source="3eU7zdn0o-lwysReG03A-23" target="3eU7zdn0o-lwysReG03A-30">
          <mxGeometry relative="1" as="geometry" />
        </mxCell>
        <mxCell id="3eU7zdn0o-lwysReG03A-23" value="Recieved?" style="rhombus;whiteSpace=wrap;html=1;fontColor=#143642;strokeColor=#0F8B8D;strokeWidth=2;fillColor=#FAE5C7;rounded=1;" vertex="1" parent="1">
          <mxGeometry x="880" y="2932.75" width="80" height="80" as="geometry" />
        </mxCell>
        <mxCell id="3eU7zdn0o-lwysReG03A-27" style="edgeStyle=orthogonalEdgeStyle;orthogonalLoop=1;jettySize=auto;html=1;fontColor=#143642;strokeColor=#A8201A;fillColor=#FAE5C7;labelBackgroundColor=#DAD2D8;" edge="1" parent="1">
          <mxGeometry relative="1" as="geometry">
            <mxPoint x="1114" y="2790" as="targetPoint" />
            <mxPoint x="744" y="2942.75" as="sourcePoint" />
            <Array as="points">
              <mxPoint x="744" y="2790" />
            </Array>
          </mxGeometry>
        </mxCell>
        <mxCell id="3eU7zdn0o-lwysReG03A-25" value="Timeout message" style="strokeWidth=2;html=1;shape=mxgraph.flowchart.display;whiteSpace=wrap;fontColor=#143642;fillColor=#FAE5C7;strokeColor=#0F8B8D;rounded=1;" vertex="1" parent="1">
          <mxGeometry x="680" y="2942.75" width="120" height="60" as="geometry" />
        </mxCell>
        <mxCell id="3eU7zdn0o-lwysReG03A-33" value="" style="edgeStyle=orthogonalEdgeStyle;orthogonalLoop=1;jettySize=auto;html=1;fontColor=#143642;strokeColor=#A8201A;fillColor=#FAE5C7;labelBackgroundColor=#DAD2D8;" edge="1" parent="1" source="3eU7zdn0o-lwysReG03A-30" target="3eU7zdn0o-lwysReG03A-32">
          <mxGeometry relative="1" as="geometry" />
        </mxCell>
        <mxCell id="3eU7zdn0o-lwysReG03A-30" value="Name created" style="shape=parallelogram;perimeter=parallelogramPerimeter;whiteSpace=wrap;html=1;fixedSize=1;fontColor=#143642;strokeColor=#0F8B8D;strokeWidth=2;fillColor=#FAE5C7;rounded=1;" vertex="1" parent="1">
          <mxGeometry x="860" y="3060" width="120" height="60" as="geometry" />
        </mxCell>
        <mxCell id="3eU7zdn0o-lwysReG03A-35" value="" style="edgeStyle=orthogonalEdgeStyle;orthogonalLoop=1;jettySize=auto;html=1;fontColor=#143642;strokeColor=#A8201A;fillColor=#FAE5C7;labelBackgroundColor=#DAD2D8;" edge="1" parent="1" source="3eU7zdn0o-lwysReG03A-32" target="3eU7zdn0o-lwysReG03A-34">
          <mxGeometry relative="1" as="geometry" />
        </mxCell>
        <mxCell id="3eU7zdn0o-lwysReG03A-32" value="Prompt Project manager to assign a member to the new team" style="whiteSpace=wrap;html=1;fontColor=#143642;strokeColor=#0F8B8D;strokeWidth=2;fillColor=#FAE5C7;rounded=1;" vertex="1" parent="1">
          <mxGeometry x="860" y="3180" width="120" height="60" as="geometry" />
        </mxCell>
        <mxCell id="3eU7zdn0o-lwysReG03A-37" value="" style="edgeStyle=orthogonalEdgeStyle;orthogonalLoop=1;jettySize=auto;html=1;fontColor=#143642;strokeColor=#A8201A;fillColor=#FAE5C7;labelBackgroundColor=#DAD2D8;" edge="1" parent="1" source="3eU7zdn0o-lwysReG03A-34" target="3eU7zdn0o-lwysReG03A-36">
          <mxGeometry relative="1" as="geometry" />
        </mxCell>
        <mxCell id="3eU7zdn0o-lwysReG03A-34" value="Enter name of &lt;br&gt;member to assign" style="shape=parallelogram;perimeter=parallelogramPerimeter;whiteSpace=wrap;html=1;fixedSize=1;fontColor=#143642;strokeColor=#0F8B8D;strokeWidth=2;fillColor=#FAE5C7;rounded=1;" vertex="1" parent="1">
          <mxGeometry x="855" y="3300" width="130" height="60" as="geometry" />
        </mxCell>
        <mxCell id="3eU7zdn0o-lwysReG03A-41" value="No" style="edgeStyle=orthogonalEdgeStyle;orthogonalLoop=1;jettySize=auto;html=1;entryX=1;entryY=0.5;entryDx=0;entryDy=0;entryPerimeter=0;fontColor=#143642;strokeColor=#A8201A;fillColor=#FAE5C7;labelBackgroundColor=#DAD2D8;" edge="1" parent="1" source="3eU7zdn0o-lwysReG03A-36" target="3eU7zdn0o-lwysReG03A-40">
          <mxGeometry relative="1" as="geometry">
            <mxPoint x="790" y="3475" as="targetPoint" />
          </mxGeometry>
        </mxCell>
        <mxCell id="3eU7zdn0o-lwysReG03A-46" value="yes" style="edgeStyle=orthogonalEdgeStyle;orthogonalLoop=1;jettySize=auto;html=1;fontColor=#143642;strokeColor=#A8201A;fillColor=#FAE5C7;labelBackgroundColor=#DAD2D8;" edge="1" parent="1" source="3eU7zdn0o-lwysReG03A-36" target="3eU7zdn0o-lwysReG03A-45">
          <mxGeometry relative="1" as="geometry" />
        </mxCell>
        <mxCell id="3eU7zdn0o-lwysReG03A-36" value="Validate name&lt;br&gt;if it exists" style="rhombus;whiteSpace=wrap;html=1;fontColor=#143642;strokeColor=#0F8B8D;strokeWidth=2;fillColor=#FAE5C7;rounded=1;" vertex="1" parent="1">
          <mxGeometry x="860" y="3430" width="120" height="90" as="geometry" />
        </mxCell>
        <mxCell id="3eU7zdn0o-lwysReG03A-42" style="edgeStyle=orthogonalEdgeStyle;orthogonalLoop=1;jettySize=auto;html=1;fontColor=#143642;strokeColor=#A8201A;fillColor=#FAE5C7;exitX=0.5;exitY=0;exitDx=0;exitDy=0;exitPerimeter=0;labelBackgroundColor=#DAD2D8;" edge="1" parent="1" source="3eU7zdn0o-lwysReG03A-40">
          <mxGeometry relative="1" as="geometry">
            <mxPoint x="920" y="3260" as="targetPoint" />
            <mxPoint x="730" y="3445" as="sourcePoint" />
            <Array as="points">
              <mxPoint x="730" y="3260" />
            </Array>
          </mxGeometry>
        </mxCell>
        <mxCell id="3eU7zdn0o-lwysReG03A-40" value="Doesn&#39;t exist, try again" style="strokeWidth=2;html=1;shape=mxgraph.flowchart.display;whiteSpace=wrap;fontColor=#143642;fillColor=#FAE5C7;strokeColor=#0F8B8D;rounded=1;" vertex="1" parent="1">
          <mxGeometry x="670" y="3445" width="120" height="60" as="geometry" />
        </mxCell>
        <mxCell id="3eU7zdn0o-lwysReG03A-48" value="" style="edgeStyle=orthogonalEdgeStyle;orthogonalLoop=1;jettySize=auto;html=1;fontColor=#143642;strokeColor=#A8201A;fillColor=#FAE5C7;labelBackgroundColor=#DAD2D8;" edge="1" parent="1" source="3eU7zdn0o-lwysReG03A-45" target="3eU7zdn0o-lwysReG03A-47">
          <mxGeometry relative="1" as="geometry" />
        </mxCell>
        <mxCell id="3eU7zdn0o-lwysReG03A-45" value="Member assigned&lt;br&gt;to the team" style="shape=parallelogram;perimeter=parallelogramPerimeter;whiteSpace=wrap;html=1;fixedSize=1;fontColor=#143642;strokeColor=#0F8B8D;strokeWidth=2;fillColor=#FAE5C7;rounded=1;" vertex="1" parent="1">
          <mxGeometry x="850" y="3580" width="140" height="60" as="geometry" />
        </mxCell>
        <mxCell id="3eU7zdn0o-lwysReG03A-49" value="Yes" style="edgeStyle=orthogonalEdgeStyle;orthogonalLoop=1;jettySize=auto;html=1;fontColor=#143642;strokeColor=#A8201A;fillColor=#FAE5C7;labelBackgroundColor=#DAD2D8;" edge="1" parent="1" source="3eU7zdn0o-lwysReG03A-47">
          <mxGeometry x="-0.8003" relative="1" as="geometry">
            <mxPoint x="920" y="3150" as="targetPoint" />
            <Array as="points">
              <mxPoint x="1120" y="3150" />
              <mxPoint x="920" y="3150" />
            </Array>
            <mxPoint as="offset" />
          </mxGeometry>
        </mxCell>
        <mxCell id="3eU7zdn0o-lwysReG03A-62" value="No" style="edgeStyle=orthogonalEdgeStyle;orthogonalLoop=1;jettySize=auto;html=1;fontColor=#143642;strokeColor=#A8201A;fillColor=#FAE5C7;labelBackgroundColor=#DAD2D8;" edge="1" parent="1" source="3eU7zdn0o-lwysReG03A-47" target="3eU7zdn0o-lwysReG03A-61">
          <mxGeometry relative="1" as="geometry" />
        </mxCell>
        <mxCell id="3eU7zdn0o-lwysReG03A-47" value="Add more?" style="rhombus;whiteSpace=wrap;html=1;fontColor=#143642;strokeColor=#0F8B8D;strokeWidth=2;fillColor=#FAE5C7;rounded=1;" vertex="1" parent="1">
          <mxGeometry x="1080" y="3570" width="80" height="80" as="geometry" />
        </mxCell>
        <mxCell id="3eU7zdn0o-lwysReG03A-55" value="No" style="edgeStyle=orthogonalEdgeStyle;orthogonalLoop=1;jettySize=auto;html=1;entryX=0.5;entryY=0;entryDx=0;entryDy=0;entryPerimeter=0;fontColor=#143642;strokeColor=#A8201A;fillColor=#FAE5C7;labelBackgroundColor=#DAD2D8;" edge="1" parent="1" source="3eU7zdn0o-lwysReG03A-52" target="3eU7zdn0o-lwysReG03A-54">
          <mxGeometry x="-0.1176" relative="1" as="geometry">
            <mxPoint as="offset" />
          </mxGeometry>
        </mxCell>
        <mxCell id="3eU7zdn0o-lwysReG03A-52" value="Create a &lt;br&gt;team?" style="rhombus;whiteSpace=wrap;html=1;fontColor=#143642;strokeColor=#0F8B8D;strokeWidth=2;fillColor=#FAE5C7;rounded=1;" vertex="1" parent="1">
          <mxGeometry x="1190" y="2732.5" width="80" height="80" as="geometry" />
        </mxCell>
        <mxCell id="3eU7zdn0o-lwysReG03A-54" value="END" style="strokeWidth=2;html=1;shape=mxgraph.flowchart.terminator;whiteSpace=wrap;fontColor=#143642;fillColor=#FAE5C7;strokeColor=#0F8B8D;rounded=1;" vertex="1" parent="1">
          <mxGeometry x="1190" y="2880.5" width="80" height="40" as="geometry" />
        </mxCell>
        <mxCell id="3eU7zdn0o-lwysReG03A-101" value="" style="edgeStyle=orthogonalEdgeStyle;curved=0;rounded=1;sketch=0;orthogonalLoop=1;jettySize=auto;html=1;fontColor=#143642;strokeColor=#A8201A;fillColor=#FAE5C7;labelBackgroundColor=#DAD2D8;" edge="1" parent="1" source="3eU7zdn0o-lwysReG03A-61" target="3eU7zdn0o-lwysReG03A-99">
          <mxGeometry relative="1" as="geometry" />
        </mxCell>
        <mxCell id="3eU7zdn0o-lwysReG03A-61" value="Prompt Project Director to assign team leader" style="whiteSpace=wrap;html=1;fontColor=#143642;strokeColor=#0F8B8D;strokeWidth=2;fillColor=#FAE5C7;rounded=1;" vertex="1" parent="1">
          <mxGeometry x="1060" y="3730" width="120" height="60" as="geometry" />
        </mxCell>
        <mxCell id="3eU7zdn0o-lwysReG03A-73" value="" style="edgeStyle=orthogonalEdgeStyle;rounded=1;orthogonalLoop=1;jettySize=auto;html=1;fontColor=#143642;strokeColor=#A8201A;fillColor=#FAE5C7;labelBackgroundColor=#DAD2D8;" edge="1" parent="1" source="3eU7zdn0o-lwysReG03A-63" target="3eU7zdn0o-lwysReG03A-68">
          <mxGeometry relative="1" as="geometry" />
        </mxCell>
        <mxCell id="3eU7zdn0o-lwysReG03A-63" value="Prompt Project Director to assign a Project Manager" style="whiteSpace=wrap;html=1;fontColor=#143642;strokeColor=#0F8B8D;strokeWidth=2;fillColor=#FAE5C7;rounded=1;" vertex="1" parent="1">
          <mxGeometry x="1180" y="2117.5" width="120" height="60" as="geometry" />
        </mxCell>
        <mxCell id="3eU7zdn0o-lwysReG03A-67" value="" style="edgeStyle=orthogonalEdgeStyle;orthogonalLoop=1;jettySize=auto;html=1;fontColor=#143642;strokeColor=#A8201A;fillColor=#FAE5C7;labelBackgroundColor=#DAD2D8;" edge="1" parent="1" source="3eU7zdn0o-lwysReG03A-68" target="3eU7zdn0o-lwysReG03A-70">
          <mxGeometry relative="1" as="geometry" />
        </mxCell>
        <mxCell id="3eU7zdn0o-lwysReG03A-68" value="Enter name of&lt;br&gt;person to be assign" style="shape=parallelogram;perimeter=parallelogramPerimeter;whiteSpace=wrap;html=1;fixedSize=1;fontColor=#143642;strokeColor=#0F8B8D;strokeWidth=2;fillColor=#FAE5C7;rounded=1;" vertex="1" parent="1">
          <mxGeometry x="1165" y="2235" width="150" height="60" as="geometry" />
        </mxCell>
        <mxCell id="3eU7zdn0o-lwysReG03A-69" value="No" style="edgeStyle=orthogonalEdgeStyle;orthogonalLoop=1;jettySize=auto;html=1;entryX=1;entryY=0.5;entryDx=0;entryDy=0;entryPerimeter=0;fontColor=#143642;strokeColor=#A8201A;fillColor=#FAE5C7;labelBackgroundColor=#DAD2D8;" edge="1" parent="1" source="3eU7zdn0o-lwysReG03A-70" target="3eU7zdn0o-lwysReG03A-71">
          <mxGeometry relative="1" as="geometry" />
        </mxCell>
        <mxCell id="3eU7zdn0o-lwysReG03A-77" value="yes" style="edgeStyle=orthogonalEdgeStyle;rounded=1;orthogonalLoop=1;jettySize=auto;html=1;fontColor=#143642;strokeColor=#A8201A;fillColor=#FAE5C7;entryX=0.5;entryY=0;entryDx=0;entryDy=0;labelBackgroundColor=#DAD2D8;" edge="1" parent="1" source="3eU7zdn0o-lwysReG03A-70" target="3eU7zdn0o-lwysReG03A-78">
          <mxGeometry x="0.0246" relative="1" as="geometry">
            <mxPoint x="1240" y="2505" as="targetPoint" />
            <Array as="points" />
            <mxPoint as="offset" />
          </mxGeometry>
        </mxCell>
        <mxCell id="3eU7zdn0o-lwysReG03A-70" value="Validate name&lt;br&gt;if it exists" style="rhombus;whiteSpace=wrap;html=1;fontColor=#143642;strokeColor=#0F8B8D;strokeWidth=2;fillColor=#FAE5C7;rounded=1;" vertex="1" parent="1">
          <mxGeometry x="1180" y="2343" width="120" height="90" as="geometry" />
        </mxCell>
        <mxCell id="3eU7zdn0o-lwysReG03A-74" style="edgeStyle=orthogonalEdgeStyle;rounded=1;orthogonalLoop=1;jettySize=auto;html=1;fontColor=#143642;strokeColor=#A8201A;fillColor=#FAE5C7;exitX=0.5;exitY=0;exitDx=0;exitDy=0;exitPerimeter=0;labelBackgroundColor=#DAD2D8;" edge="1" parent="1" source="3eU7zdn0o-lwysReG03A-71">
          <mxGeometry relative="1" as="geometry">
            <mxPoint x="1240" y="2195" as="targetPoint" />
            <mxPoint x="1045" y="2358" as="sourcePoint" />
            <Array as="points">
              <mxPoint x="1050" y="2195" />
            </Array>
          </mxGeometry>
        </mxCell>
        <mxCell id="3eU7zdn0o-lwysReG03A-71" value="Doesn&#39;t exist, try again" style="strokeWidth=2;html=1;shape=mxgraph.flowchart.display;whiteSpace=wrap;fontColor=#143642;fillColor=#FAE5C7;strokeColor=#0F8B8D;rounded=1;" vertex="1" parent="1">
          <mxGeometry x="990" y="2358" width="120" height="60" as="geometry" />
        </mxCell>
        <mxCell id="3eU7zdn0o-lwysReG03A-87" value="" style="edgeStyle=orthogonalEdgeStyle;curved=0;rounded=1;sketch=0;orthogonalLoop=1;jettySize=auto;html=1;fontColor=#143642;strokeColor=#A8201A;fillColor=#FAE5C7;labelBackgroundColor=#DAD2D8;" edge="1" parent="1" source="3eU7zdn0o-lwysReG03A-76" target="3eU7zdn0o-lwysReG03A-52">
          <mxGeometry relative="1" as="geometry" />
        </mxCell>
        <mxCell id="3eU7zdn0o-lwysReG03A-76" value="Project Manager &lt;br&gt;has been assigned &lt;br&gt;to [name]" style="shape=parallelogram;perimeter=parallelogramPerimeter;whiteSpace=wrap;html=1;fixedSize=1;rounded=1;fontColor=#143642;strokeColor=#0F8B8D;strokeWidth=2;fillColor=#FAE5C7;" vertex="1" parent="1">
          <mxGeometry x="1167.5" y="2615.25" width="145" height="60" as="geometry" />
        </mxCell>
        <mxCell id="3eU7zdn0o-lwysReG03A-80" value="" style="edgeStyle=orthogonalEdgeStyle;curved=0;rounded=1;sketch=0;orthogonalLoop=1;jettySize=auto;html=1;fontColor=#143642;strokeColor=#A8201A;fillColor=#FAE5C7;labelBackgroundColor=#DAD2D8;" edge="1" parent="1" source="3eU7zdn0o-lwysReG03A-78" target="3eU7zdn0o-lwysReG03A-76">
          <mxGeometry relative="1" as="geometry" />
        </mxCell>
        <mxCell id="3eU7zdn0o-lwysReG03A-78" value="Assign [name] as Project Manager" style="whiteSpace=wrap;html=1;rounded=1;fontColor=#143642;strokeColor=#0F8B8D;strokeWidth=2;fillColor=#FAE5C7;" vertex="1" parent="1">
          <mxGeometry x="1180" y="2503" width="120" height="60" as="geometry" />
        </mxCell>
        <mxCell id="3eU7zdn0o-lwysReG03A-86" value="" style="edgeStyle=orthogonalEdgeStyle;curved=0;rounded=1;sketch=0;orthogonalLoop=1;jettySize=auto;html=1;fontColor=#143642;strokeColor=#A8201A;fillColor=#FAE5C7;exitX=0;exitY=0.5;exitDx=0;exitDy=0;exitPerimeter=0;labelBackgroundColor=#DAD2D8;" edge="1" parent="1" source="FrGdiXdgHyBI-WpfrZmk-43" target="3eU7zdn0o-lwysReG03A-63">
          <mxGeometry relative="1" as="geometry">
            <mxPoint x="1372.1000000000001" y="2147.5" as="sourcePoint" />
          </mxGeometry>
        </mxCell>
        <mxCell id="3eU7zdn0o-lwysReG03A-91" value="" style="edgeStyle=orthogonalEdgeStyle;curved=0;rounded=1;sketch=0;orthogonalLoop=1;jettySize=auto;html=1;fontColor=#143642;strokeColor=#A8201A;fillColor=#FAE5C7;labelBackgroundColor=#DAD2D8;" edge="1" parent="1" source="3eU7zdn0o-lwysReG03A-88" target="3eU7zdn0o-lwysReG03A-90">
          <mxGeometry relative="1" as="geometry" />
        </mxCell>
        <mxCell id="3eU7zdn0o-lwysReG03A-88" value="Determine personnel cost of project" style="rounded=1;whiteSpace=wrap;html=1;fontColor=#143642;strokeColor=#0F8B8D;fillColor=#FAE5C7;" vertex="1" parent="1">
          <mxGeometry x="1391" y="1342.5" width="120" height="60" as="geometry" />
        </mxCell>
        <mxCell id="3eU7zdn0o-lwysReG03A-92" value="" style="edgeStyle=orthogonalEdgeStyle;curved=0;rounded=1;sketch=0;orthogonalLoop=1;jettySize=auto;html=1;fontColor=#143642;strokeColor=#A8201A;fillColor=#FAE5C7;labelBackgroundColor=#DAD2D8;" edge="1" parent="1" source="3eU7zdn0o-lwysReG03A-90" target="hpM_4bH_3X7jpKGeUaUQ-36">
          <mxGeometry relative="1" as="geometry" />
        </mxCell>
        <mxCell id="3eU7zdn0o-lwysReG03A-90" value="Determine tasks needed" style="whiteSpace=wrap;html=1;rounded=1;fontColor=#143642;strokeColor=#0F8B8D;fillColor=#FAE5C7;" vertex="1" parent="1">
          <mxGeometry x="1391" y="1452.5" width="120" height="60" as="geometry" />
        </mxCell>
        <mxCell id="3eU7zdn0o-lwysReG03A-97" value="No" style="edgeStyle=orthogonalEdgeStyle;orthogonalLoop=1;jettySize=auto;html=1;entryX=1;entryY=0.5;entryDx=0;entryDy=0;entryPerimeter=0;fontColor=#143642;strokeColor=#A8201A;fillColor=#FAE5C7;labelBackgroundColor=#DAD2D8;" edge="1" source="3eU7zdn0o-lwysReG03A-99" target="3eU7zdn0o-lwysReG03A-100" parent="1">
          <mxGeometry relative="1" as="geometry" />
        </mxCell>
        <mxCell id="FrGdiXdgHyBI-WpfrZmk-16" value="" style="edgeStyle=orthogonalEdgeStyle;curved=0;rounded=1;sketch=0;orthogonalLoop=1;jettySize=auto;html=1;fontColor=#143642;strokeColor=#A8201A;fillColor=#FAE5C7;labelBackgroundColor=#DAD2D8;" edge="1" parent="1" source="3eU7zdn0o-lwysReG03A-99" target="FrGdiXdgHyBI-WpfrZmk-15">
          <mxGeometry relative="1" as="geometry" />
        </mxCell>
        <mxCell id="3eU7zdn0o-lwysReG03A-99" value="Recieved?" style="rhombus;whiteSpace=wrap;html=1;fontColor=#143642;strokeColor=#0F8B8D;strokeWidth=2;fillColor=#FAE5C7;rounded=1;" vertex="1" parent="1">
          <mxGeometry x="1080" y="3822.5" width="80" height="80" as="geometry" />
        </mxCell>
        <mxCell id="3eU7zdn0o-lwysReG03A-102" style="edgeStyle=orthogonalEdgeStyle;curved=0;rounded=1;sketch=0;orthogonalLoop=1;jettySize=auto;html=1;entryX=0;entryY=0.5;entryDx=0;entryDy=0;fontColor=#143642;strokeColor=#A8201A;fillColor=#FAE5C7;exitX=0.5;exitY=0;exitDx=0;exitDy=0;exitPerimeter=0;labelBackgroundColor=#DAD2D8;" edge="1" parent="1" source="3eU7zdn0o-lwysReG03A-100" target="3eU7zdn0o-lwysReG03A-61">
          <mxGeometry relative="1" as="geometry" />
        </mxCell>
        <mxCell id="3eU7zdn0o-lwysReG03A-100" value="Timeout message" style="strokeWidth=2;html=1;shape=mxgraph.flowchart.display;whiteSpace=wrap;fontColor=#143642;fillColor=#FAE5C7;strokeColor=#0F8B8D;rounded=1;" vertex="1" parent="1">
          <mxGeometry x="880" y="3832.5" width="120" height="60" as="geometry" />
        </mxCell>
        <mxCell id="FrGdiXdgHyBI-WpfrZmk-5" value="Yes" style="edgeStyle=orthogonalEdgeStyle;curved=0;rounded=1;sketch=0;orthogonalLoop=1;jettySize=auto;html=1;fontColor=#143642;strokeColor=#A8201A;fillColor=#FAE5C7;labelBackgroundColor=#DAD2D8;" edge="1" parent="1" source="FrGdiXdgHyBI-WpfrZmk-3" target="hpM_4bH_3X7jpKGeUaUQ-34">
          <mxGeometry relative="1" as="geometry" />
        </mxCell>
        <mxCell id="FrGdiXdgHyBI-WpfrZmk-3" value="Create new Project?" style="rhombus;whiteSpace=wrap;html=1;fillColor=#FAE5C7;strokeColor=#0F8B8D;fontColor=#143642;rounded=1;" vertex="1" parent="1">
          <mxGeometry x="1450" y="1016.25" width="90" height="102.5" as="geometry" />
        </mxCell>
        <mxCell id="FrGdiXdgHyBI-WpfrZmk-20" value="" style="edgeStyle=orthogonalEdgeStyle;curved=0;rounded=1;sketch=0;orthogonalLoop=1;jettySize=auto;html=1;fontColor=#143642;strokeColor=#A8201A;fillColor=#FAE5C7;labelBackgroundColor=#DAD2D8;" edge="1" parent="1" source="FrGdiXdgHyBI-WpfrZmk-15" target="FrGdiXdgHyBI-WpfrZmk-19">
          <mxGeometry relative="1" as="geometry" />
        </mxCell>
        <mxCell id="FrGdiXdgHyBI-WpfrZmk-15" value="Team Leader assigned" style="strokeWidth=2;html=1;shape=mxgraph.flowchart.display;whiteSpace=wrap;rounded=0;sketch=0;fontColor=#143642;fillColor=#FAE5C7;strokeColor=#0F8B8D;" vertex="1" parent="1">
          <mxGeometry x="1070" y="3950" width="100" height="60" as="geometry" />
        </mxCell>
        <mxCell id="FrGdiXdgHyBI-WpfrZmk-22" value="No" style="edgeStyle=orthogonalEdgeStyle;curved=0;rounded=1;sketch=0;orthogonalLoop=1;jettySize=auto;html=1;fontColor=#143642;strokeColor=#A8201A;fillColor=#FAE5C7;labelBackgroundColor=#DAD2D8;" edge="1" parent="1" source="FrGdiXdgHyBI-WpfrZmk-19" target="FrGdiXdgHyBI-WpfrZmk-21">
          <mxGeometry relative="1" as="geometry" />
        </mxCell>
        <mxCell id="FrGdiXdgHyBI-WpfrZmk-24" value="Yes" style="edgeStyle=orthogonalEdgeStyle;curved=0;rounded=1;sketch=0;orthogonalLoop=1;jettySize=auto;html=1;fontColor=#143642;strokeColor=#A8201A;fillColor=#FAE5C7;labelBackgroundColor=#DAD2D8;" edge="1" parent="1" source="FrGdiXdgHyBI-WpfrZmk-19" target="FrGdiXdgHyBI-WpfrZmk-23">
          <mxGeometry relative="1" as="geometry" />
        </mxCell>
        <mxCell id="FrGdiXdgHyBI-WpfrZmk-19" value="Create new&lt;br&gt;project again?" style="rhombus;whiteSpace=wrap;html=1;rounded=0;fontColor=#143642;strokeColor=#0F8B8D;strokeWidth=2;fillColor=#FAE5C7;sketch=0;" vertex="1" parent="1">
          <mxGeometry x="1055" y="4070" width="120" height="100" as="geometry" />
        </mxCell>
        <mxCell id="FrGdiXdgHyBI-WpfrZmk-21" value="END" style="ellipse;whiteSpace=wrap;html=1;rounded=0;fontColor=#143642;strokeColor=#0F8B8D;strokeWidth=2;fillColor=#FAE5C7;sketch=0;" vertex="1" parent="1">
          <mxGeometry x="1055" y="4270" width="120" height="60" as="geometry" />
        </mxCell>
        <mxCell id="FrGdiXdgHyBI-WpfrZmk-23" value="&lt;span style=&quot;color: rgb(20 , 54 , 66) ; font-family: &amp;#34;helvetica&amp;#34; ; font-size: 12px ; font-style: normal ; font-weight: 400 ; letter-spacing: normal ; text-align: center ; text-indent: 0px ; text-transform: none ; word-spacing: 0px ; display: inline ; float: none&quot;&gt;Prompt Project Director to create Project Profile&lt;/span&gt;" style="shape=process;whiteSpace=wrap;html=1;backgroundOutline=1;rounded=0;fontColor=#143642;strokeColor=#0F8B8D;strokeWidth=2;fillColor=#FAE5C7;sketch=0;labelBackgroundColor=none;" vertex="1" parent="1">
          <mxGeometry x="885" y="4090" width="120" height="60" as="geometry" />
        </mxCell>
        <mxCell id="FrGdiXdgHyBI-WpfrZmk-28" value="" style="edgeStyle=orthogonalEdgeStyle;curved=0;rounded=1;sketch=0;orthogonalLoop=1;jettySize=auto;html=1;fontColor=#143642;strokeColor=#A8201A;fillColor=#FAE5C7;labelBackgroundColor=#DAD2D8;" edge="1" parent="1" source="FrGdiXdgHyBI-WpfrZmk-25" target="FrGdiXdgHyBI-WpfrZmk-27">
          <mxGeometry relative="1" as="geometry" />
        </mxCell>
        <mxCell id="FrGdiXdgHyBI-WpfrZmk-25" value="Prompt Project Manager with list of Teams related to the Project" style="whiteSpace=wrap;html=1;rounded=1;fontColor=#143642;strokeColor=#0F8B8D;fillColor=#FAE5C7;" vertex="1" parent="1">
          <mxGeometry x="1749" y="1017" width="120" height="60" as="geometry" />
        </mxCell>
        <mxCell id="FrGdiXdgHyBI-WpfrZmk-68" value="" style="edgeStyle=orthogonalEdgeStyle;curved=0;rounded=1;sketch=0;orthogonalLoop=1;jettySize=auto;html=1;fontColor=#143642;strokeColor=#A8201A;fillColor=#FAE5C7;labelBackgroundColor=#DAD2D8;" edge="1" parent="1" source="FrGdiXdgHyBI-WpfrZmk-27" target="FrGdiXdgHyBI-WpfrZmk-31">
          <mxGeometry relative="1" as="geometry" />
        </mxCell>
        <mxCell id="FrGdiXdgHyBI-WpfrZmk-27" value="Input selected Team from Project manager" style="rounded=1;whiteSpace=wrap;html=1;fontColor=#143642;strokeColor=#0F8B8D;fillColor=#FAE5C7;" vertex="1" parent="1">
          <mxGeometry x="1741.5" y="1130.75" width="135" height="60" as="geometry" />
        </mxCell>
        <mxCell id="FrGdiXdgHyBI-WpfrZmk-34" value="" style="edgeStyle=orthogonalEdgeStyle;curved=0;rounded=1;sketch=0;orthogonalLoop=1;jettySize=auto;html=1;fontColor=#143642;strokeColor=#A8201A;fillColor=#FAE5C7;labelBackgroundColor=#DAD2D8;" edge="1" parent="1" source="FrGdiXdgHyBI-WpfrZmk-31" target="FrGdiXdgHyBI-WpfrZmk-33">
          <mxGeometry relative="1" as="geometry" />
        </mxCell>
        <mxCell id="FrGdiXdgHyBI-WpfrZmk-31" value="Prompt Project Manager to assign tasks" style="rounded=1;whiteSpace=wrap;html=1;fontColor=#143642;strokeColor=#0F8B8D;fillColor=#FAE5C7;" vertex="1" parent="1">
          <mxGeometry x="1749" y="1282.5" width="120" height="60" as="geometry" />
        </mxCell>
        <mxCell id="FrGdiXdgHyBI-WpfrZmk-38" value="No" style="edgeStyle=orthogonalEdgeStyle;curved=0;rounded=1;sketch=0;orthogonalLoop=1;jettySize=auto;html=1;fontColor=#143642;strokeColor=#A8201A;fillColor=#FAE5C7;labelBackgroundColor=#DAD2D8;" edge="1" parent="1" source="FrGdiXdgHyBI-WpfrZmk-33" target="FrGdiXdgHyBI-WpfrZmk-36">
          <mxGeometry relative="1" as="geometry" />
        </mxCell>
        <mxCell id="FrGdiXdgHyBI-WpfrZmk-45" value="Yes" style="edgeStyle=orthogonalEdgeStyle;curved=0;rounded=1;sketch=0;orthogonalLoop=1;jettySize=auto;html=1;fontColor=#143642;strokeColor=#A8201A;fillColor=#FAE5C7;labelBackgroundColor=#DAD2D8;" edge="1" parent="1" source="FrGdiXdgHyBI-WpfrZmk-33" target="FrGdiXdgHyBI-WpfrZmk-44">
          <mxGeometry relative="1" as="geometry" />
        </mxCell>
        <mxCell id="FrGdiXdgHyBI-WpfrZmk-33" value="Received?" style="rhombus;whiteSpace=wrap;html=1;rounded=1;fontColor=#143642;strokeColor=#0F8B8D;fillColor=#FAE5C7;" vertex="1" parent="1">
          <mxGeometry x="1769" y="1412.5" width="80" height="80" as="geometry" />
        </mxCell>
        <mxCell id="FrGdiXdgHyBI-WpfrZmk-35" style="edgeStyle=orthogonalEdgeStyle;orthogonalLoop=1;jettySize=auto;html=1;fontColor=#143642;strokeColor=#A8201A;fillColor=#FAE5C7;exitX=0.5;exitY=0;exitDx=0;exitDy=0;exitPerimeter=0;labelBackgroundColor=#DAD2D8;" edge="1" source="FrGdiXdgHyBI-WpfrZmk-36" parent="1">
          <mxGeometry relative="1" as="geometry">
            <mxPoint x="1810" y="1241.25" as="targetPoint" />
            <mxPoint x="1586.0344827586207" y="1176.75" as="sourcePoint" />
            <Array as="points">
              <mxPoint x="1650" y="1241.25" />
            </Array>
          </mxGeometry>
        </mxCell>
        <mxCell id="FrGdiXdgHyBI-WpfrZmk-36" value="Timeoout message" style="strokeWidth=2;html=1;shape=mxgraph.flowchart.display;whiteSpace=wrap;fillColor=#FAE5C7;strokeColor=#0F8B8D;fontColor=#143642;rounded=1;" vertex="1" parent="1">
          <mxGeometry x="1590" y="1420" width="120" height="65" as="geometry" />
        </mxCell>
        <mxCell id="FrGdiXdgHyBI-WpfrZmk-41" style="edgeStyle=orthogonalEdgeStyle;curved=0;rounded=1;sketch=0;orthogonalLoop=1;jettySize=auto;html=1;entryX=0.5;entryY=0;entryDx=0;entryDy=0;fontColor=#143642;strokeColor=#A8201A;fillColor=#FAE5C7;labelBackgroundColor=#DAD2D8;" edge="1" parent="1" source="FrGdiXdgHyBI-WpfrZmk-39" target="hpM_4bH_3X7jpKGeUaUQ-9">
          <mxGeometry relative="1" as="geometry" />
        </mxCell>
        <mxCell id="FrGdiXdgHyBI-WpfrZmk-39" value="Prompt user to enter logon info" style="rounded=1;whiteSpace=wrap;html=1;fontColor=#143642;strokeColor=#0F8B8D;strokeWidth=2;fillColor=#FAE5C7;" vertex="1" parent="1">
          <mxGeometry x="860" y="470" width="120" height="60" as="geometry" />
        </mxCell>
        <mxCell id="FrGdiXdgHyBI-WpfrZmk-42" value="Logon Success" style="strokeWidth=2;html=1;shape=mxgraph.flowchart.display;whiteSpace=wrap;rounded=0;sketch=0;fontColor=#143642;fillColor=#FAE5C7;strokeColor=#0F8B8D;" vertex="1" parent="1">
          <mxGeometry x="1070" y="855" width="100" height="60" as="geometry" />
        </mxCell>
        <mxCell id="FrGdiXdgHyBI-WpfrZmk-43" value="Project Profile created" style="strokeWidth=2;html=1;shape=mxgraph.flowchart.display;whiteSpace=wrap;rounded=0;sketch=0;fontColor=#143642;fillColor=#FAE5C7;strokeColor=#0F8B8D;" vertex="1" parent="1">
          <mxGeometry x="1370" y="2118" width="100" height="60" as="geometry" />
        </mxCell>
        <mxCell id="FrGdiXdgHyBI-WpfrZmk-47" value="" style="edgeStyle=orthogonalEdgeStyle;curved=0;rounded=1;sketch=0;orthogonalLoop=1;jettySize=auto;html=1;fontColor=#143642;strokeColor=#A8201A;fillColor=#FAE5C7;labelBackgroundColor=#DAD2D8;" edge="1" parent="1" source="FrGdiXdgHyBI-WpfrZmk-44" target="FrGdiXdgHyBI-WpfrZmk-46">
          <mxGeometry relative="1" as="geometry" />
        </mxCell>
        <mxCell id="FrGdiXdgHyBI-WpfrZmk-44" value="Tasks are assigned" style="strokeWidth=2;html=1;shape=mxgraph.flowchart.display;whiteSpace=wrap;rounded=0;sketch=0;fontColor=#143642;fillColor=#FAE5C7;strokeColor=#0F8B8D;" vertex="1" parent="1">
          <mxGeometry x="1759" y="1544.25" width="100" height="60" as="geometry" />
        </mxCell>
        <mxCell id="FrGdiXdgHyBI-WpfrZmk-49" value="No" style="edgeStyle=orthogonalEdgeStyle;curved=0;rounded=1;sketch=0;orthogonalLoop=1;jettySize=auto;html=1;fontColor=#143642;strokeColor=#A8201A;fillColor=#FAE5C7;labelBackgroundColor=#DAD2D8;" edge="1" parent="1" source="FrGdiXdgHyBI-WpfrZmk-46" target="FrGdiXdgHyBI-WpfrZmk-48">
          <mxGeometry relative="1" as="geometry" />
        </mxCell>
        <mxCell id="FrGdiXdgHyBI-WpfrZmk-51" value="" style="edgeStyle=orthogonalEdgeStyle;curved=0;rounded=1;sketch=0;orthogonalLoop=1;jettySize=auto;html=1;fontColor=#143642;strokeColor=#A8201A;fillColor=#FAE5C7;labelBackgroundColor=#DAD2D8;" edge="1" parent="1" source="FrGdiXdgHyBI-WpfrZmk-46" target="FrGdiXdgHyBI-WpfrZmk-50">
          <mxGeometry relative="1" as="geometry" />
        </mxCell>
        <mxCell id="FrGdiXdgHyBI-WpfrZmk-46" value="Assign tasks to other project?" style="rhombus;whiteSpace=wrap;html=1;rounded=0;fontColor=#143642;strokeColor=#0F8B8D;strokeWidth=2;fillColor=#FAE5C7;sketch=0;" vertex="1" parent="1">
          <mxGeometry x="1753.5" y="1674.25" width="111" height="110" as="geometry" />
        </mxCell>
        <mxCell id="FrGdiXdgHyBI-WpfrZmk-48" value="END" style="ellipse;whiteSpace=wrap;html=1;rounded=0;fontColor=#143642;strokeColor=#0F8B8D;strokeWidth=2;fillColor=#FAE5C7;sketch=0;" vertex="1" parent="1">
          <mxGeometry x="1749" y="1889.25" width="120" height="60" as="geometry" />
        </mxCell>
        <mxCell id="FrGdiXdgHyBI-WpfrZmk-50" value="&#xa;&#xa;&lt;span style=&quot;color: rgb(20, 54, 66); font-family: helvetica; font-size: 12px; font-style: normal; font-weight: 400; letter-spacing: normal; text-align: center; text-indent: 0px; text-transform: none; word-spacing: 0px; display: inline; float: none;&quot;&gt;Prompt Project Manager with list of Projects&lt;/span&gt;&#xa;&#xa;" style="shape=process;whiteSpace=wrap;html=1;backgroundOutline=1;rounded=0;fontColor=#143642;strokeColor=#0F8B8D;strokeWidth=2;fillColor=#FAE5C7;sketch=0;labelBackgroundColor=none;" vertex="1" parent="1">
          <mxGeometry x="1940" y="1699.25" width="120" height="60" as="geometry" />
        </mxCell>
        <mxCell id="FrGdiXdgHyBI-WpfrZmk-54" value="" style="edgeStyle=orthogonalEdgeStyle;curved=0;rounded=1;sketch=0;orthogonalLoop=1;jettySize=auto;html=1;fontColor=#143642;strokeColor=#A8201A;fillColor=#FAE5C7;labelBackgroundColor=#DAD2D8;" edge="1" source="FrGdiXdgHyBI-WpfrZmk-55" target="FrGdiXdgHyBI-WpfrZmk-57" parent="1">
          <mxGeometry relative="1" as="geometry" />
        </mxCell>
        <mxCell id="FrGdiXdgHyBI-WpfrZmk-55" value="Prompt Project Manager with list of Teams related to the Project" style="whiteSpace=wrap;html=1;rounded=1;fontColor=#143642;strokeColor=#0F8B8D;fillColor=#FAE5C7;" vertex="1" parent="1">
          <mxGeometry x="2269" y="1008.75" width="120" height="60" as="geometry" />
        </mxCell>
        <mxCell id="FrGdiXdgHyBI-WpfrZmk-56" value="" style="edgeStyle=orthogonalEdgeStyle;curved=0;rounded=1;sketch=0;orthogonalLoop=1;jettySize=auto;html=1;fontColor=#143642;strokeColor=#A8201A;fillColor=#FAE5C7;labelBackgroundColor=#DAD2D8;" edge="1" source="FrGdiXdgHyBI-WpfrZmk-57" target="FrGdiXdgHyBI-WpfrZmk-59" parent="1">
          <mxGeometry relative="1" as="geometry" />
        </mxCell>
        <mxCell id="FrGdiXdgHyBI-WpfrZmk-57" value="Input selected Team from Project leader" style="rounded=1;whiteSpace=wrap;html=1;fontColor=#143642;strokeColor=#0F8B8D;fillColor=#FAE5C7;" vertex="1" parent="1">
          <mxGeometry x="2261.5" y="1122.5" width="135" height="60" as="geometry" />
        </mxCell>
        <mxCell id="FrGdiXdgHyBI-WpfrZmk-58" value="" style="edgeStyle=orthogonalEdgeStyle;curved=0;rounded=1;sketch=0;orthogonalLoop=1;jettySize=auto;html=1;fontColor=#143642;strokeColor=#A8201A;fillColor=#FAE5C7;labelBackgroundColor=#DAD2D8;" edge="1" source="FrGdiXdgHyBI-WpfrZmk-59" target="FrGdiXdgHyBI-WpfrZmk-61" parent="1">
          <mxGeometry relative="1" as="geometry" />
        </mxCell>
        <mxCell id="FrGdiXdgHyBI-WpfrZmk-59" value="Prompt Project leader with list of teams" style="whiteSpace=wrap;html=1;rounded=1;fontColor=#143642;strokeColor=#0F8B8D;fillColor=#FAE5C7;" vertex="1" parent="1">
          <mxGeometry x="2269" y="1240" width="120" height="60" as="geometry" />
        </mxCell>
        <mxCell id="FrGdiXdgHyBI-WpfrZmk-60" value="" style="edgeStyle=orthogonalEdgeStyle;curved=0;rounded=1;sketch=0;orthogonalLoop=1;jettySize=auto;html=1;fontColor=#143642;strokeColor=#A8201A;fillColor=#FAE5C7;labelBackgroundColor=#DAD2D8;" edge="1" source="FrGdiXdgHyBI-WpfrZmk-61" target="FrGdiXdgHyBI-WpfrZmk-64" parent="1">
          <mxGeometry relative="1" as="geometry" />
        </mxCell>
        <mxCell id="FrGdiXdgHyBI-WpfrZmk-61" value="Prompt Project Leader to assign tasks to each member" style="rounded=1;whiteSpace=wrap;html=1;fontColor=#143642;strokeColor=#0F8B8D;fillColor=#FAE5C7;" vertex="1" parent="1">
          <mxGeometry x="2269" y="1380" width="120" height="60" as="geometry" />
        </mxCell>
        <mxCell id="FrGdiXdgHyBI-WpfrZmk-62" value="No" style="edgeStyle=orthogonalEdgeStyle;curved=0;rounded=1;sketch=0;orthogonalLoop=1;jettySize=auto;html=1;fontColor=#143642;strokeColor=#A8201A;fillColor=#FAE5C7;labelBackgroundColor=#DAD2D8;" edge="1" source="FrGdiXdgHyBI-WpfrZmk-64" target="FrGdiXdgHyBI-WpfrZmk-66" parent="1">
          <mxGeometry relative="1" as="geometry" />
        </mxCell>
        <mxCell id="FrGdiXdgHyBI-WpfrZmk-63" value="Yes" style="edgeStyle=orthogonalEdgeStyle;curved=0;rounded=1;sketch=0;orthogonalLoop=1;jettySize=auto;html=1;fontColor=#143642;strokeColor=#A8201A;fillColor=#FAE5C7;labelBackgroundColor=#DAD2D8;" edge="1" source="FrGdiXdgHyBI-WpfrZmk-64" target="FrGdiXdgHyBI-WpfrZmk-67" parent="1">
          <mxGeometry relative="1" as="geometry" />
        </mxCell>
        <mxCell id="FrGdiXdgHyBI-WpfrZmk-64" value="Received?" style="rhombus;whiteSpace=wrap;html=1;rounded=1;fontColor=#143642;strokeColor=#0F8B8D;fillColor=#FAE5C7;" vertex="1" parent="1">
          <mxGeometry x="2289" y="1510" width="80" height="80" as="geometry" />
        </mxCell>
        <mxCell id="FrGdiXdgHyBI-WpfrZmk-65" style="edgeStyle=orthogonalEdgeStyle;orthogonalLoop=1;jettySize=auto;html=1;fontColor=#143642;strokeColor=#A8201A;fillColor=#FAE5C7;exitX=0.5;exitY=0;exitDx=0;exitDy=0;exitPerimeter=0;labelBackgroundColor=#DAD2D8;" edge="1" source="FrGdiXdgHyBI-WpfrZmk-66" parent="1">
          <mxGeometry relative="1" as="geometry">
            <mxPoint x="2330" y="1338.75" as="targetPoint" />
            <mxPoint x="2106.0344827586205" y="1274.25" as="sourcePoint" />
            <Array as="points">
              <mxPoint x="2170" y="1338.75" />
            </Array>
          </mxGeometry>
        </mxCell>
        <mxCell id="FrGdiXdgHyBI-WpfrZmk-66" value="Timeoout message" style="strokeWidth=2;html=1;shape=mxgraph.flowchart.display;whiteSpace=wrap;fillColor=#FAE5C7;strokeColor=#0F8B8D;fontColor=#143642;rounded=1;" vertex="1" parent="1">
          <mxGeometry x="2110" y="1517.5" width="120" height="65" as="geometry" />
        </mxCell>
        <mxCell id="FrGdiXdgHyBI-WpfrZmk-70" value="" style="edgeStyle=orthogonalEdgeStyle;curved=0;rounded=1;sketch=0;orthogonalLoop=1;jettySize=auto;html=1;fontColor=#143642;strokeColor=#A8201A;fillColor=#FAE5C7;labelBackgroundColor=#DAD2D8;" edge="1" parent="1" source="FrGdiXdgHyBI-WpfrZmk-67" target="FrGdiXdgHyBI-WpfrZmk-69">
          <mxGeometry relative="1" as="geometry" />
        </mxCell>
        <mxCell id="FrGdiXdgHyBI-WpfrZmk-67" value="Tasks are assigned" style="strokeWidth=2;html=1;shape=mxgraph.flowchart.display;whiteSpace=wrap;rounded=0;sketch=0;fontColor=#143642;fillColor=#FAE5C7;strokeColor=#0F8B8D;" vertex="1" parent="1">
          <mxGeometry x="2279" y="1641.75" width="100" height="60" as="geometry" />
        </mxCell>
        <mxCell id="FrGdiXdgHyBI-WpfrZmk-72" value="No" style="edgeStyle=orthogonalEdgeStyle;curved=0;rounded=1;sketch=0;orthogonalLoop=1;jettySize=auto;html=1;fontColor=#143642;strokeColor=#A8201A;fillColor=#FAE5C7;labelBackgroundColor=#DAD2D8;" edge="1" parent="1" source="FrGdiXdgHyBI-WpfrZmk-69" target="FrGdiXdgHyBI-WpfrZmk-71">
          <mxGeometry relative="1" as="geometry" />
        </mxCell>
        <mxCell id="FrGdiXdgHyBI-WpfrZmk-74" value="" style="edgeStyle=orthogonalEdgeStyle;curved=0;rounded=1;sketch=0;orthogonalLoop=1;jettySize=auto;html=1;fontColor=#143642;strokeColor=#A8201A;fillColor=#FAE5C7;labelBackgroundColor=#DAD2D8;" edge="1" parent="1" source="FrGdiXdgHyBI-WpfrZmk-69" target="FrGdiXdgHyBI-WpfrZmk-73">
          <mxGeometry relative="1" as="geometry" />
        </mxCell>
        <mxCell id="FrGdiXdgHyBI-WpfrZmk-69" value="Assign tasks to other team?" style="rhombus;whiteSpace=wrap;html=1;rounded=0;fontColor=#143642;strokeColor=#0F8B8D;strokeWidth=2;fillColor=#FAE5C7;sketch=0;" vertex="1" parent="1">
          <mxGeometry x="2274.5" y="1771.75" width="111" height="108.25" as="geometry" />
        </mxCell>
        <mxCell id="FrGdiXdgHyBI-WpfrZmk-71" value="END" style="ellipse;whiteSpace=wrap;html=1;rounded=0;fontColor=#143642;strokeColor=#0F8B8D;strokeWidth=2;fillColor=#FAE5C7;sketch=0;" vertex="1" parent="1">
          <mxGeometry x="2270" y="1984.125" width="120" height="60" as="geometry" />
        </mxCell>
        <mxCell id="FrGdiXdgHyBI-WpfrZmk-73" value="&lt;span&gt;Prompt Project Manager with list of Teams related to the Project&lt;/span&gt;" style="shape=process;whiteSpace=wrap;html=1;backgroundOutline=1;rounded=0;fontColor=#143642;strokeColor=#0F8B8D;strokeWidth=2;fillColor=#FAE5C7;sketch=0;" vertex="1" parent="1">
          <mxGeometry x="2461" y="1788.8100000000002" width="149" height="74.13" as="geometry" />
        </mxCell>
        <mxCell id="FrGdiXdgHyBI-WpfrZmk-75" value="FLOWCHART" style="text;html=1;strokeColor=none;fillColor=none;align=center;verticalAlign=middle;whiteSpace=wrap;rounded=0;sketch=0;fontColor=#143642;fontSize=23;fontStyle=1" vertex="1" parent="1">
          <mxGeometry x="110" y="100" width="260" height="80" as="geometry" />
        </mxCell>
      </root>
    </mxGraphModel>
  </diagram>
  <diagram id="CU7LhziSGrBqGJUX8OZy" name="3">
    <mxGraphModel dx="868" dy="498" grid="1" gridSize="10" guides="1" tooltips="1" connect="1" arrows="1" fold="1" page="1" pageScale="1" pageWidth="1600" pageHeight="1200" math="0" shadow="0">
      <root>
        <mxCell id="xoowQPZRBszDjU-doCPT-0" />
        <mxCell id="xoowQPZRBszDjU-doCPT-1" parent="xoowQPZRBszDjU-doCPT-0" />
        <mxCell id="_GEBrEGuPko2IthZNlTH-0" value="" style="rounded=0;whiteSpace=wrap;html=1;fillColor=none;fontSize=11;strokeColor=#01aeee;strokeWidth=3;labelBackgroundColor=#2a2a2a;endArrow=classic;" parent="xoowQPZRBszDjU-doCPT-1" vertex="1">
          <mxGeometry x="608.5" y="160" width="555" height="840" as="geometry" />
        </mxCell>
        <mxCell id="_GEBrEGuPko2IthZNlTH-1" style="orthogonalLoop=1;jettySize=auto;html=1;exitX=0.5;exitY=0.5;exitDx=0;exitDy=0;exitPerimeter=0;entryX=0;entryY=0.5;entryDx=0;entryDy=0;strokeWidth=3;strokeColor=#01aeee;rounded=0;endArrow=none;endFill=0;" parent="xoowQPZRBszDjU-doCPT-1" source="_GEBrEGuPko2IthZNlTH-4" target="_GEBrEGuPko2IthZNlTH-10" edge="1">
          <mxGeometry relative="1" as="geometry" />
        </mxCell>
        <mxCell id="_GEBrEGuPko2IthZNlTH-2" style="edgeStyle=none;rounded=0;orthogonalLoop=1;jettySize=auto;html=1;exitX=0.5;exitY=0.5;exitDx=0;exitDy=0;exitPerimeter=0;entryX=0;entryY=0.5;entryDx=0;entryDy=0;strokeWidth=3;strokeColor=#01aeee;endFill=0;endArrow=none;" parent="xoowQPZRBszDjU-doCPT-1" source="_GEBrEGuPko2IthZNlTH-4" target="_GEBrEGuPko2IthZNlTH-11" edge="1">
          <mxGeometry relative="1" as="geometry" />
        </mxCell>
        <mxCell id="_GEBrEGuPko2IthZNlTH-3" style="edgeStyle=none;rounded=0;orthogonalLoop=1;jettySize=auto;html=1;exitX=0.5;exitY=0.5;exitDx=0;exitDy=0;exitPerimeter=0;entryX=0.5;entryY=0;entryDx=0;entryDy=0;strokeWidth=3;strokeColor=#01aeee;endFill=0;endArrow=none;" parent="xoowQPZRBszDjU-doCPT-1" source="_GEBrEGuPko2IthZNlTH-4" target="_GEBrEGuPko2IthZNlTH-13" edge="1">
          <mxGeometry relative="1" as="geometry" />
        </mxCell>
        <mxCell id="_GEBrEGuPko2IthZNlTH-4" value="Project Director" style="shape=umlActor;verticalLabelPosition=bottom;verticalAlign=top;html=1;fillColor=default;strokeColor=#FF0000;strokeWidth=5;" parent="xoowQPZRBszDjU-doCPT-1" vertex="1">
          <mxGeometry x="446" y="290" width="60" height="110" as="geometry" />
        </mxCell>
        <mxCell id="_GEBrEGuPko2IthZNlTH-5" style="edgeStyle=none;rounded=0;orthogonalLoop=1;jettySize=auto;html=1;exitX=0.5;exitY=0.5;exitDx=0;exitDy=0;exitPerimeter=0;entryX=0;entryY=0.5;entryDx=0;entryDy=0;strokeWidth=3;strokeColor=#01aeee;endFill=0;endArrow=none;" parent="xoowQPZRBszDjU-doCPT-1" source="_GEBrEGuPko2IthZNlTH-7" target="_GEBrEGuPko2IthZNlTH-12" edge="1">
          <mxGeometry relative="1" as="geometry" />
        </mxCell>
        <mxCell id="_GEBrEGuPko2IthZNlTH-6" style="edgeStyle=none;rounded=0;orthogonalLoop=1;jettySize=auto;html=1;exitX=0.5;exitY=0.5;exitDx=0;exitDy=0;exitPerimeter=0;entryX=0;entryY=0;entryDx=0;entryDy=0;strokeWidth=3;strokeColor=#01aeee;endFill=0;endArrow=none;" parent="xoowQPZRBszDjU-doCPT-1" source="_GEBrEGuPko2IthZNlTH-7" target="_GEBrEGuPko2IthZNlTH-13" edge="1">
          <mxGeometry relative="1" as="geometry" />
        </mxCell>
        <mxCell id="_GEBrEGuPko2IthZNlTH-7" value="Project Manager" style="shape=umlActor;verticalLabelPosition=bottom;verticalAlign=top;html=1;strokeColor=#FF0000;strokeWidth=5;fillColor=default;" parent="xoowQPZRBszDjU-doCPT-1" vertex="1">
          <mxGeometry x="446" y="560" width="60" height="110" as="geometry" />
        </mxCell>
        <mxCell id="_GEBrEGuPko2IthZNlTH-8" style="edgeStyle=none;rounded=0;orthogonalLoop=1;jettySize=auto;html=1;exitX=0.5;exitY=0.5;exitDx=0;exitDy=0;exitPerimeter=0;entryX=0;entryY=0.5;entryDx=0;entryDy=0;strokeWidth=3;strokeColor=#01aeee;endFill=0;endArrow=none;" parent="xoowQPZRBszDjU-doCPT-1" source="_GEBrEGuPko2IthZNlTH-9" target="_GEBrEGuPko2IthZNlTH-13" edge="1">
          <mxGeometry relative="1" as="geometry" />
        </mxCell>
        <mxCell id="_GEBrEGuPko2IthZNlTH-9" value="Team Leader" style="shape=umlActor;verticalLabelPosition=bottom;verticalAlign=top;html=1;strokeColor=#FF0000;strokeWidth=5;fillColor=default;" parent="xoowQPZRBszDjU-doCPT-1" vertex="1">
          <mxGeometry x="446" y="860" width="60" height="110" as="geometry" />
        </mxCell>
        <mxCell id="_GEBrEGuPko2IthZNlTH-10" value="Create Projects" style="ellipse;whiteSpace=wrap;html=1;fillColor=#1bbc9d;strokeColor=#1BBC9D;fontColor=#FFFFFF;fontSize=19;" parent="xoowQPZRBszDjU-doCPT-1" vertex="1">
          <mxGeometry x="680" y="230" width="175" height="110" as="geometry" />
        </mxCell>
        <mxCell id="_GEBrEGuPko2IthZNlTH-11" value="Create Teams" style="ellipse;whiteSpace=wrap;html=1;fillColor=#1bbc9d;fontSize=19;fontColor=#FFFFFF;strokeColor=#1BBC9D;" parent="xoowQPZRBszDjU-doCPT-1" vertex="1">
          <mxGeometry x="700" y="410" width="175" height="110" as="geometry" />
        </mxCell>
        <mxCell id="_GEBrEGuPko2IthZNlTH-12" value="Assign Tasks to Team" style="ellipse;whiteSpace=wrap;html=1;fillColor=#1bbc9d;fontSize=19;fontColor=#FFFFFF;strokeColor=#1BBC9D;" parent="xoowQPZRBszDjU-doCPT-1" vertex="1">
          <mxGeometry x="700" y="590" width="175" height="110" as="geometry" />
        </mxCell>
        <mxCell id="_GEBrEGuPko2IthZNlTH-13" value="Assign Tasks to Team members" style="ellipse;whiteSpace=wrap;html=1;fillColor=#1bbc9d;fontSize=19;fontColor=#FFFFFF;strokeColor=#1BBC9D;" parent="xoowQPZRBszDjU-doCPT-1" vertex="1">
          <mxGeometry x="680" y="800" width="175" height="110" as="geometry" />
        </mxCell>
        <mxCell id="_GEBrEGuPko2IthZNlTH-14" value="Create Profile" style="ellipse;whiteSpace=wrap;html=1;fillColor=#1bbc9d;fontSize=19;fontColor=#FFFFFF;strokeColor=#1BBC9D;" parent="xoowQPZRBszDjU-doCPT-1" vertex="1">
          <mxGeometry x="940" y="300" width="175" height="110" as="geometry" />
        </mxCell>
        <mxCell id="_GEBrEGuPko2IthZNlTH-15" value="&amp;lt;&amp;lt;include&amp;gt;&amp;gt;" style="endArrow=open;endSize=16;endFill=0;html=1;entryX=0;entryY=0.5;entryDx=0;entryDy=0;exitX=1;exitY=0.5;exitDx=0;exitDy=0;strokeWidth=3;strokeColor=#01aeee;fontSize=13;dashed=1;" parent="xoowQPZRBszDjU-doCPT-1" source="_GEBrEGuPko2IthZNlTH-10" target="_GEBrEGuPko2IthZNlTH-14" edge="1">
          <mxGeometry x="-0.0253" y="-1" width="160" relative="1" as="geometry">
            <mxPoint x="866" y="265" as="sourcePoint" />
            <mxPoint x="1026" y="265" as="targetPoint" />
            <mxPoint as="offset" />
          </mxGeometry>
        </mxCell>
        <mxCell id="_GEBrEGuPko2IthZNlTH-16" value="Automated System" style="text;html=1;strokeColor=none;fillColor=none;align=center;verticalAlign=middle;whiteSpace=wrap;rounded=0;fontSize=16;fontColor=#000000;" parent="xoowQPZRBszDjU-doCPT-1" vertex="1">
          <mxGeometry x="771" y="180" width="230" height="30" as="geometry" />
        </mxCell>
      </root>
    </mxGraphModel>
  </diagram>
  <diagram id="Oz9aQQk6Am4BIYY1-Td3" name="4">
    <mxGraphModel dx="1240" dy="711" grid="1" gridSize="10" guides="1" tooltips="1" connect="1" arrows="1" fold="1" page="1" pageScale="1" pageWidth="1600" pageHeight="1200" math="0" shadow="0">
      <root>
        <mxCell id="h9BGPUR_kHKGgyNdzhqx-0" />
        <mxCell id="h9BGPUR_kHKGgyNdzhqx-1" parent="h9BGPUR_kHKGgyNdzhqx-0" />
        <object label="Car" id="h9BGPUR_kHKGgyNdzhqx-2">
          <mxCell style="shape=table;startSize=30;container=1;collapsible=1;childLayout=tableLayout;fixedRows=1;rowLines=0;fontStyle=1;align=center;resizeLast=1;fillColor=#21C0A5;strokeColor=#006658;fontColor=#5C5C5C;rounded=1;" parent="h9BGPUR_kHKGgyNdzhqx-1" vertex="1">
            <mxGeometry x="965" y="90" width="210" height="250" as="geometry">
              <mxRectangle x="450" y="120" width="70" height="30" as="alternateBounds" />
            </mxGeometry>
          </mxCell>
        </object>
        <mxCell id="h9BGPUR_kHKGgyNdzhqx-3" value="" style="shape=partialRectangle;collapsible=0;dropTarget=0;pointerEvents=0;fillColor=none;points=[[0,0.5],[1,0.5]];portConstraint=eastwest;top=0;left=0;right=0;bottom=1;strokeColor=#006658;fontColor=#5C5C5C;rounded=1;" parent="h9BGPUR_kHKGgyNdzhqx-2" vertex="1">
          <mxGeometry y="30" width="210" height="30" as="geometry" />
        </mxCell>
        <mxCell id="h9BGPUR_kHKGgyNdzhqx-4" value="PK" style="shape=partialRectangle;overflow=hidden;connectable=0;fillColor=none;top=0;left=0;bottom=0;right=0;fontStyle=1;strokeColor=#006658;fontColor=#5C5C5C;rounded=1;" parent="h9BGPUR_kHKGgyNdzhqx-3" vertex="1">
          <mxGeometry width="30" height="30" as="geometry">
            <mxRectangle width="30" height="30" as="alternateBounds" />
          </mxGeometry>
        </mxCell>
        <mxCell id="h9BGPUR_kHKGgyNdzhqx-5" value="CarID" style="shape=partialRectangle;overflow=hidden;connectable=0;fillColor=none;top=0;left=0;bottom=0;right=0;align=left;spacingLeft=6;fontStyle=1;strokeColor=#006658;fontColor=#5C5C5C;rounded=1;" parent="h9BGPUR_kHKGgyNdzhqx-3" vertex="1">
          <mxGeometry x="30" width="180" height="30" as="geometry">
            <mxRectangle width="180" height="30" as="alternateBounds" />
          </mxGeometry>
        </mxCell>
        <mxCell id="h9BGPUR_kHKGgyNdzhqx-6" value="" style="shape=partialRectangle;collapsible=0;dropTarget=0;pointerEvents=0;fillColor=none;points=[[0,0.5],[1,0.5]];portConstraint=eastwest;top=0;left=0;right=0;bottom=0;strokeColor=#006658;fontColor=#5C5C5C;rounded=1;" parent="h9BGPUR_kHKGgyNdzhqx-2" vertex="1">
          <mxGeometry y="60" width="210" height="30" as="geometry" />
        </mxCell>
        <mxCell id="h9BGPUR_kHKGgyNdzhqx-7" value="" style="shape=partialRectangle;overflow=hidden;connectable=0;fillColor=none;top=0;left=0;bottom=0;right=0;strokeColor=#006658;fontColor=#5C5C5C;rounded=1;" parent="h9BGPUR_kHKGgyNdzhqx-6" vertex="1">
          <mxGeometry width="30" height="30" as="geometry">
            <mxRectangle width="30" height="30" as="alternateBounds" />
          </mxGeometry>
        </mxCell>
        <mxCell id="h9BGPUR_kHKGgyNdzhqx-8" value="Serial_number " style="shape=partialRectangle;overflow=hidden;connectable=0;fillColor=none;top=0;left=0;bottom=0;right=0;align=left;spacingLeft=6;strokeColor=#006658;fontColor=#5C5C5C;rounded=1;" parent="h9BGPUR_kHKGgyNdzhqx-6" vertex="1">
          <mxGeometry x="30" width="180" height="30" as="geometry">
            <mxRectangle width="180" height="30" as="alternateBounds" />
          </mxGeometry>
        </mxCell>
        <mxCell id="h9BGPUR_kHKGgyNdzhqx-9" value="" style="shape=partialRectangle;collapsible=0;dropTarget=0;pointerEvents=0;fillColor=none;points=[[0,0.5],[1,0.5]];portConstraint=eastwest;top=0;left=0;right=0;bottom=0;strokeColor=#006658;fontColor=#5C5C5C;rounded=1;" parent="h9BGPUR_kHKGgyNdzhqx-2" vertex="1">
          <mxGeometry y="90" width="210" height="30" as="geometry" />
        </mxCell>
        <mxCell id="h9BGPUR_kHKGgyNdzhqx-10" value="" style="shape=partialRectangle;overflow=hidden;connectable=0;fillColor=none;top=0;left=0;bottom=0;right=0;strokeColor=#006658;fontColor=#5C5C5C;rounded=1;" parent="h9BGPUR_kHKGgyNdzhqx-9" vertex="1">
          <mxGeometry width="30" height="30" as="geometry">
            <mxRectangle width="30" height="30" as="alternateBounds" />
          </mxGeometry>
        </mxCell>
        <mxCell id="h9BGPUR_kHKGgyNdzhqx-11" value="Make" style="shape=partialRectangle;overflow=hidden;connectable=0;fillColor=none;top=0;left=0;bottom=0;right=0;align=left;spacingLeft=6;strokeColor=#006658;fontColor=#5C5C5C;rounded=1;" parent="h9BGPUR_kHKGgyNdzhqx-9" vertex="1">
          <mxGeometry x="30" width="180" height="30" as="geometry">
            <mxRectangle width="180" height="30" as="alternateBounds" />
          </mxGeometry>
        </mxCell>
        <mxCell id="h9BGPUR_kHKGgyNdzhqx-12" value="" style="shape=partialRectangle;collapsible=0;dropTarget=0;pointerEvents=0;fillColor=none;points=[[0,0.5],[1,0.5]];portConstraint=eastwest;top=0;left=0;right=0;bottom=0;strokeColor=#006658;fontColor=#5C5C5C;rounded=1;" parent="h9BGPUR_kHKGgyNdzhqx-2" vertex="1">
          <mxGeometry y="120" width="210" height="30" as="geometry" />
        </mxCell>
        <mxCell id="h9BGPUR_kHKGgyNdzhqx-13" value="" style="shape=partialRectangle;overflow=hidden;connectable=0;fillColor=none;top=0;left=0;bottom=0;right=0;strokeColor=#006658;fontColor=#5C5C5C;rounded=1;" parent="h9BGPUR_kHKGgyNdzhqx-12" vertex="1">
          <mxGeometry width="30" height="30" as="geometry">
            <mxRectangle width="30" height="30" as="alternateBounds" />
          </mxGeometry>
        </mxCell>
        <mxCell id="h9BGPUR_kHKGgyNdzhqx-14" value="Model" style="shape=partialRectangle;overflow=hidden;connectable=0;fillColor=none;top=0;left=0;bottom=0;right=0;align=left;spacingLeft=6;strokeColor=#006658;fontColor=#5C5C5C;rounded=1;" parent="h9BGPUR_kHKGgyNdzhqx-12" vertex="1">
          <mxGeometry x="30" width="180" height="30" as="geometry">
            <mxRectangle width="180" height="30" as="alternateBounds" />
          </mxGeometry>
        </mxCell>
        <mxCell id="h9BGPUR_kHKGgyNdzhqx-15" value="" style="shape=partialRectangle;collapsible=0;dropTarget=0;pointerEvents=0;fillColor=none;points=[[0,0.5],[1,0.5]];portConstraint=eastwest;top=0;left=0;right=0;bottom=0;strokeColor=#006658;fontColor=#5C5C5C;rounded=1;" parent="h9BGPUR_kHKGgyNdzhqx-2" vertex="1">
          <mxGeometry y="150" width="210" height="30" as="geometry" />
        </mxCell>
        <mxCell id="h9BGPUR_kHKGgyNdzhqx-16" value="" style="shape=partialRectangle;overflow=hidden;connectable=0;fillColor=none;top=0;left=0;bottom=0;right=0;strokeColor=#006658;fontColor=#5C5C5C;rounded=1;" parent="h9BGPUR_kHKGgyNdzhqx-15" vertex="1">
          <mxGeometry width="30" height="30" as="geometry">
            <mxRectangle width="30" height="30" as="alternateBounds" />
          </mxGeometry>
        </mxCell>
        <mxCell id="h9BGPUR_kHKGgyNdzhqx-17" value="Color" style="shape=partialRectangle;overflow=hidden;connectable=0;fillColor=none;top=0;left=0;bottom=0;right=0;align=left;spacingLeft=6;strokeColor=#006658;fontColor=#5C5C5C;rounded=1;" parent="h9BGPUR_kHKGgyNdzhqx-15" vertex="1">
          <mxGeometry x="30" width="180" height="30" as="geometry">
            <mxRectangle width="180" height="30" as="alternateBounds" />
          </mxGeometry>
        </mxCell>
        <mxCell id="h9BGPUR_kHKGgyNdzhqx-18" value="" style="shape=partialRectangle;collapsible=0;dropTarget=0;pointerEvents=0;fillColor=none;points=[[0,0.5],[1,0.5]];portConstraint=eastwest;top=0;left=0;right=0;bottom=0;strokeColor=#006658;fontColor=#5C5C5C;rounded=1;" parent="h9BGPUR_kHKGgyNdzhqx-2" vertex="1">
          <mxGeometry y="180" width="210" height="30" as="geometry" />
        </mxCell>
        <mxCell id="h9BGPUR_kHKGgyNdzhqx-19" value="" style="shape=partialRectangle;overflow=hidden;connectable=0;fillColor=none;top=0;left=0;bottom=0;right=0;strokeColor=#006658;fontColor=#5C5C5C;rounded=1;" parent="h9BGPUR_kHKGgyNdzhqx-18" vertex="1">
          <mxGeometry width="30" height="30" as="geometry">
            <mxRectangle width="30" height="30" as="alternateBounds" />
          </mxGeometry>
        </mxCell>
        <mxCell id="h9BGPUR_kHKGgyNdzhqx-20" value="Year" style="shape=partialRectangle;overflow=hidden;connectable=0;fillColor=none;top=0;left=0;bottom=0;right=0;align=left;spacingLeft=6;strokeColor=#006658;fontColor=#5C5C5C;rounded=1;" parent="h9BGPUR_kHKGgyNdzhqx-18" vertex="1">
          <mxGeometry x="30" width="180" height="30" as="geometry">
            <mxRectangle width="180" height="30" as="alternateBounds" />
          </mxGeometry>
        </mxCell>
        <mxCell id="h9BGPUR_kHKGgyNdzhqx-21" value="" style="shape=partialRectangle;collapsible=0;dropTarget=0;pointerEvents=0;fillColor=none;points=[[0,0.5],[1,0.5]];portConstraint=eastwest;top=0;left=0;right=0;bottom=0;strokeColor=#006658;fontColor=#5C5C5C;rounded=1;" parent="h9BGPUR_kHKGgyNdzhqx-2" vertex="1">
          <mxGeometry y="210" width="210" height="30" as="geometry" />
        </mxCell>
        <mxCell id="h9BGPUR_kHKGgyNdzhqx-22" value="" style="shape=partialRectangle;overflow=hidden;connectable=0;fillColor=none;top=0;left=0;bottom=0;right=0;strokeColor=#006658;fontColor=#5C5C5C;rounded=1;" parent="h9BGPUR_kHKGgyNdzhqx-21" vertex="1">
          <mxGeometry width="30" height="30" as="geometry">
            <mxRectangle width="30" height="30" as="alternateBounds" />
          </mxGeometry>
        </mxCell>
        <mxCell id="h9BGPUR_kHKGgyNdzhqx-23" value="Car_for_Sale_Y/N" style="shape=partialRectangle;overflow=hidden;connectable=0;fillColor=none;top=0;left=0;bottom=0;right=0;align=left;spacingLeft=6;strokeColor=#006658;fontColor=#5C5C5C;rounded=1;" parent="h9BGPUR_kHKGgyNdzhqx-21" vertex="1">
          <mxGeometry x="30" width="180" height="30" as="geometry">
            <mxRectangle width="180" height="30" as="alternateBounds" />
          </mxGeometry>
        </mxCell>
        <mxCell id="h9BGPUR_kHKGgyNdzhqx-24" value="Customer" style="shape=table;startSize=30;container=1;collapsible=1;childLayout=tableLayout;fixedRows=1;rowLines=0;fontStyle=1;align=center;resizeLast=1;fillColor=#21C0A5;strokeColor=#006658;fontColor=#5C5C5C;rounded=1;" parent="h9BGPUR_kHKGgyNdzhqx-1" vertex="1">
          <mxGeometry x="1195" y="415" width="200" height="310" as="geometry" />
        </mxCell>
        <mxCell id="h9BGPUR_kHKGgyNdzhqx-25" value="" style="shape=partialRectangle;collapsible=0;dropTarget=0;pointerEvents=0;fillColor=none;points=[[0,0.5],[1,0.5]];portConstraint=eastwest;top=0;left=0;right=0;bottom=1;strokeColor=#006658;fontColor=#5C5C5C;rounded=1;" parent="h9BGPUR_kHKGgyNdzhqx-24" vertex="1">
          <mxGeometry y="30" width="200" height="30" as="geometry" />
        </mxCell>
        <mxCell id="h9BGPUR_kHKGgyNdzhqx-26" value="PK" style="shape=partialRectangle;overflow=hidden;connectable=0;fillColor=none;top=0;left=0;bottom=0;right=0;fontStyle=1;strokeColor=#006658;fontColor=#5C5C5C;rounded=1;" parent="h9BGPUR_kHKGgyNdzhqx-25" vertex="1">
          <mxGeometry width="30" height="30" as="geometry">
            <mxRectangle width="30" height="30" as="alternateBounds" />
          </mxGeometry>
        </mxCell>
        <mxCell id="h9BGPUR_kHKGgyNdzhqx-27" value="CustomerID" style="shape=partialRectangle;overflow=hidden;connectable=0;fillColor=none;top=0;left=0;bottom=0;right=0;align=left;spacingLeft=6;fontStyle=1;strokeColor=#006658;fontColor=#5C5C5C;rounded=1;" parent="h9BGPUR_kHKGgyNdzhqx-25" vertex="1">
          <mxGeometry x="30" width="170" height="30" as="geometry">
            <mxRectangle width="170" height="30" as="alternateBounds" />
          </mxGeometry>
        </mxCell>
        <mxCell id="h9BGPUR_kHKGgyNdzhqx-28" value="" style="shape=partialRectangle;collapsible=0;dropTarget=0;pointerEvents=0;fillColor=none;points=[[0,0.5],[1,0.5]];portConstraint=eastwest;top=0;left=0;right=0;bottom=0;strokeColor=#006658;fontColor=#5C5C5C;rounded=1;" parent="h9BGPUR_kHKGgyNdzhqx-24" vertex="1">
          <mxGeometry y="60" width="200" height="30" as="geometry" />
        </mxCell>
        <mxCell id="h9BGPUR_kHKGgyNdzhqx-29" value="" style="shape=partialRectangle;overflow=hidden;connectable=0;fillColor=none;top=0;left=0;bottom=0;right=0;strokeColor=#006658;fontColor=#5C5C5C;rounded=1;" parent="h9BGPUR_kHKGgyNdzhqx-28" vertex="1">
          <mxGeometry width="30" height="30" as="geometry">
            <mxRectangle width="30" height="30" as="alternateBounds" />
          </mxGeometry>
        </mxCell>
        <mxCell id="h9BGPUR_kHKGgyNdzhqx-30" value="LastName" style="shape=partialRectangle;overflow=hidden;connectable=0;fillColor=none;top=0;left=0;bottom=0;right=0;align=left;spacingLeft=6;strokeColor=#006658;fontColor=#5C5C5C;rounded=1;" parent="h9BGPUR_kHKGgyNdzhqx-28" vertex="1">
          <mxGeometry x="30" width="170" height="30" as="geometry">
            <mxRectangle width="170" height="30" as="alternateBounds" />
          </mxGeometry>
        </mxCell>
        <mxCell id="h9BGPUR_kHKGgyNdzhqx-31" value="" style="shape=partialRectangle;collapsible=0;dropTarget=0;pointerEvents=0;fillColor=none;points=[[0,0.5],[1,0.5]];portConstraint=eastwest;top=0;left=0;right=0;bottom=0;strokeColor=#006658;fontColor=#5C5C5C;rounded=1;" parent="h9BGPUR_kHKGgyNdzhqx-24" vertex="1">
          <mxGeometry y="90" width="200" height="30" as="geometry" />
        </mxCell>
        <mxCell id="h9BGPUR_kHKGgyNdzhqx-32" value="" style="shape=partialRectangle;overflow=hidden;connectable=0;fillColor=none;top=0;left=0;bottom=0;right=0;strokeColor=#006658;fontColor=#5C5C5C;rounded=1;" parent="h9BGPUR_kHKGgyNdzhqx-31" vertex="1">
          <mxGeometry width="30" height="30" as="geometry">
            <mxRectangle width="30" height="30" as="alternateBounds" />
          </mxGeometry>
        </mxCell>
        <mxCell id="h9BGPUR_kHKGgyNdzhqx-33" value="FirstName" style="shape=partialRectangle;overflow=hidden;connectable=0;fillColor=none;top=0;left=0;bottom=0;right=0;align=left;spacingLeft=6;strokeColor=#006658;fontColor=#5C5C5C;rounded=1;" parent="h9BGPUR_kHKGgyNdzhqx-31" vertex="1">
          <mxGeometry x="30" width="170" height="30" as="geometry">
            <mxRectangle width="170" height="30" as="alternateBounds" />
          </mxGeometry>
        </mxCell>
        <mxCell id="h9BGPUR_kHKGgyNdzhqx-34" value="" style="shape=partialRectangle;collapsible=0;dropTarget=0;pointerEvents=0;fillColor=none;points=[[0,0.5],[1,0.5]];portConstraint=eastwest;top=0;left=0;right=0;bottom=0;strokeColor=#006658;fontColor=#5C5C5C;rounded=1;" parent="h9BGPUR_kHKGgyNdzhqx-24" vertex="1">
          <mxGeometry y="120" width="200" height="30" as="geometry" />
        </mxCell>
        <mxCell id="h9BGPUR_kHKGgyNdzhqx-35" value="" style="shape=partialRectangle;overflow=hidden;connectable=0;fillColor=none;top=0;left=0;bottom=0;right=0;strokeColor=#006658;fontColor=#5C5C5C;rounded=1;" parent="h9BGPUR_kHKGgyNdzhqx-34" vertex="1">
          <mxGeometry width="30" height="30" as="geometry">
            <mxRectangle width="30" height="30" as="alternateBounds" />
          </mxGeometry>
        </mxCell>
        <mxCell id="h9BGPUR_kHKGgyNdzhqx-36" value="Phone_Number" style="shape=partialRectangle;overflow=hidden;connectable=0;fillColor=none;top=0;left=0;bottom=0;right=0;align=left;spacingLeft=6;strokeColor=#006658;fontColor=#5C5C5C;rounded=1;" parent="h9BGPUR_kHKGgyNdzhqx-34" vertex="1">
          <mxGeometry x="30" width="170" height="30" as="geometry">
            <mxRectangle width="170" height="30" as="alternateBounds" />
          </mxGeometry>
        </mxCell>
        <mxCell id="h9BGPUR_kHKGgyNdzhqx-37" value="" style="shape=partialRectangle;collapsible=0;dropTarget=0;pointerEvents=0;fillColor=none;points=[[0,0.5],[1,0.5]];portConstraint=eastwest;top=0;left=0;right=0;bottom=0;strokeColor=#006658;fontColor=#5C5C5C;rounded=1;" parent="h9BGPUR_kHKGgyNdzhqx-24" vertex="1">
          <mxGeometry y="150" width="200" height="30" as="geometry" />
        </mxCell>
        <mxCell id="h9BGPUR_kHKGgyNdzhqx-38" value="" style="shape=partialRectangle;overflow=hidden;connectable=0;fillColor=none;top=0;left=0;bottom=0;right=0;strokeColor=#006658;fontColor=#5C5C5C;rounded=1;" parent="h9BGPUR_kHKGgyNdzhqx-37" vertex="1">
          <mxGeometry width="30" height="30" as="geometry">
            <mxRectangle width="30" height="30" as="alternateBounds" />
          </mxGeometry>
        </mxCell>
        <mxCell id="h9BGPUR_kHKGgyNdzhqx-39" value="Address" style="shape=partialRectangle;overflow=hidden;connectable=0;fillColor=none;top=0;left=0;bottom=0;right=0;align=left;spacingLeft=6;strokeColor=#006658;fontColor=#5C5C5C;rounded=1;" parent="h9BGPUR_kHKGgyNdzhqx-37" vertex="1">
          <mxGeometry x="30" width="170" height="30" as="geometry">
            <mxRectangle width="170" height="30" as="alternateBounds" />
          </mxGeometry>
        </mxCell>
        <mxCell id="h9BGPUR_kHKGgyNdzhqx-40" value="" style="shape=partialRectangle;collapsible=0;dropTarget=0;pointerEvents=0;fillColor=none;points=[[0,0.5],[1,0.5]];portConstraint=eastwest;top=0;left=0;right=0;bottom=0;strokeColor=#006658;fontColor=#5C5C5C;rounded=1;" parent="h9BGPUR_kHKGgyNdzhqx-24" vertex="1">
          <mxGeometry y="180" width="200" height="30" as="geometry" />
        </mxCell>
        <mxCell id="h9BGPUR_kHKGgyNdzhqx-41" value="" style="shape=partialRectangle;overflow=hidden;connectable=0;fillColor=none;top=0;left=0;bottom=0;right=0;strokeColor=#006658;fontColor=#5C5C5C;rounded=1;" parent="h9BGPUR_kHKGgyNdzhqx-40" vertex="1">
          <mxGeometry width="30" height="30" as="geometry">
            <mxRectangle width="30" height="30" as="alternateBounds" />
          </mxGeometry>
        </mxCell>
        <mxCell id="h9BGPUR_kHKGgyNdzhqx-42" value="City" style="shape=partialRectangle;overflow=hidden;connectable=0;fillColor=none;top=0;left=0;bottom=0;right=0;align=left;spacingLeft=6;strokeColor=#006658;fontColor=#5C5C5C;rounded=1;" parent="h9BGPUR_kHKGgyNdzhqx-40" vertex="1">
          <mxGeometry x="30" width="170" height="30" as="geometry">
            <mxRectangle width="170" height="30" as="alternateBounds" />
          </mxGeometry>
        </mxCell>
        <mxCell id="h9BGPUR_kHKGgyNdzhqx-43" value="" style="shape=partialRectangle;collapsible=0;dropTarget=0;pointerEvents=0;fillColor=none;points=[[0,0.5],[1,0.5]];portConstraint=eastwest;top=0;left=0;right=0;bottom=0;strokeColor=#006658;fontColor=#5C5C5C;rounded=1;" parent="h9BGPUR_kHKGgyNdzhqx-24" vertex="1">
          <mxGeometry y="210" width="200" height="30" as="geometry" />
        </mxCell>
        <mxCell id="h9BGPUR_kHKGgyNdzhqx-44" value="" style="shape=partialRectangle;overflow=hidden;connectable=0;fillColor=none;top=0;left=0;bottom=0;right=0;strokeColor=#006658;fontColor=#5C5C5C;rounded=1;" parent="h9BGPUR_kHKGgyNdzhqx-43" vertex="1">
          <mxGeometry width="30" height="30" as="geometry">
            <mxRectangle width="30" height="30" as="alternateBounds" />
          </mxGeometry>
        </mxCell>
        <mxCell id="h9BGPUR_kHKGgyNdzhqx-45" value="State/Province" style="shape=partialRectangle;overflow=hidden;connectable=0;fillColor=none;top=0;left=0;bottom=0;right=0;align=left;spacingLeft=6;strokeColor=#006658;fontColor=#5C5C5C;rounded=1;" parent="h9BGPUR_kHKGgyNdzhqx-43" vertex="1">
          <mxGeometry x="30" width="170" height="30" as="geometry">
            <mxRectangle width="170" height="30" as="alternateBounds" />
          </mxGeometry>
        </mxCell>
        <mxCell id="h9BGPUR_kHKGgyNdzhqx-46" value="" style="shape=partialRectangle;collapsible=0;dropTarget=0;pointerEvents=0;fillColor=none;points=[[0,0.5],[1,0.5]];portConstraint=eastwest;top=0;left=0;right=0;bottom=0;strokeColor=#006658;fontColor=#5C5C5C;rounded=1;" parent="h9BGPUR_kHKGgyNdzhqx-24" vertex="1">
          <mxGeometry y="240" width="200" height="30" as="geometry" />
        </mxCell>
        <mxCell id="h9BGPUR_kHKGgyNdzhqx-47" value="" style="shape=partialRectangle;overflow=hidden;connectable=0;fillColor=none;top=0;left=0;bottom=0;right=0;strokeColor=#006658;fontColor=#5C5C5C;rounded=1;" parent="h9BGPUR_kHKGgyNdzhqx-46" vertex="1">
          <mxGeometry width="30" height="30" as="geometry">
            <mxRectangle width="30" height="30" as="alternateBounds" />
          </mxGeometry>
        </mxCell>
        <mxCell id="h9BGPUR_kHKGgyNdzhqx-48" value="Country" style="shape=partialRectangle;overflow=hidden;connectable=0;fillColor=none;top=0;left=0;bottom=0;right=0;align=left;spacingLeft=6;strokeColor=#006658;fontColor=#5C5C5C;rounded=1;" parent="h9BGPUR_kHKGgyNdzhqx-46" vertex="1">
          <mxGeometry x="30" width="170" height="30" as="geometry">
            <mxRectangle width="170" height="30" as="alternateBounds" />
          </mxGeometry>
        </mxCell>
        <mxCell id="h9BGPUR_kHKGgyNdzhqx-49" value="" style="shape=partialRectangle;collapsible=0;dropTarget=0;pointerEvents=0;fillColor=none;points=[[0,0.5],[1,0.5]];portConstraint=eastwest;top=0;left=0;right=0;bottom=0;strokeColor=#006658;fontColor=#5C5C5C;rounded=1;" parent="h9BGPUR_kHKGgyNdzhqx-24" vertex="1">
          <mxGeometry y="270" width="200" height="30" as="geometry" />
        </mxCell>
        <mxCell id="h9BGPUR_kHKGgyNdzhqx-50" value="" style="shape=partialRectangle;overflow=hidden;connectable=0;fillColor=none;top=0;left=0;bottom=0;right=0;strokeColor=#006658;fontColor=#5C5C5C;rounded=1;" parent="h9BGPUR_kHKGgyNdzhqx-49" vertex="1">
          <mxGeometry width="30" height="30" as="geometry">
            <mxRectangle width="30" height="30" as="alternateBounds" />
          </mxGeometry>
        </mxCell>
        <mxCell id="h9BGPUR_kHKGgyNdzhqx-51" value="Postal_code" style="shape=partialRectangle;overflow=hidden;connectable=0;fillColor=none;top=0;left=0;bottom=0;right=0;align=left;spacingLeft=6;strokeColor=#006658;fontColor=#5C5C5C;rounded=1;" parent="h9BGPUR_kHKGgyNdzhqx-49" vertex="1">
          <mxGeometry x="30" width="170" height="30" as="geometry">
            <mxRectangle width="170" height="30" as="alternateBounds" />
          </mxGeometry>
        </mxCell>
        <mxCell id="h9BGPUR_kHKGgyNdzhqx-52" value="Service" style="shape=table;startSize=30;container=1;collapsible=1;childLayout=tableLayout;fixedRows=1;rowLines=0;fontStyle=1;align=center;resizeLast=1;fillColor=#21C0A5;strokeColor=#006658;fontColor=#5C5C5C;rounded=1;" parent="h9BGPUR_kHKGgyNdzhqx-1" vertex="1">
          <mxGeometry x="915" y="710" width="220" height="130" as="geometry" />
        </mxCell>
        <mxCell id="h9BGPUR_kHKGgyNdzhqx-53" value="" style="shape=partialRectangle;collapsible=0;dropTarget=0;pointerEvents=0;fillColor=none;points=[[0,0.5],[1,0.5]];portConstraint=eastwest;top=0;left=0;right=0;bottom=1;strokeColor=#006658;fontColor=#5C5C5C;rounded=1;" parent="h9BGPUR_kHKGgyNdzhqx-52" vertex="1">
          <mxGeometry y="30" width="220" height="30" as="geometry" />
        </mxCell>
        <mxCell id="h9BGPUR_kHKGgyNdzhqx-54" value="PK" style="shape=partialRectangle;overflow=hidden;connectable=0;fillColor=none;top=0;left=0;bottom=0;right=0;fontStyle=1;strokeColor=#006658;fontColor=#5C5C5C;rounded=1;" parent="h9BGPUR_kHKGgyNdzhqx-53" vertex="1">
          <mxGeometry width="30" height="30" as="geometry">
            <mxRectangle width="30" height="30" as="alternateBounds" />
          </mxGeometry>
        </mxCell>
        <mxCell id="h9BGPUR_kHKGgyNdzhqx-55" value="ServiceID" style="shape=partialRectangle;overflow=hidden;connectable=0;fillColor=none;top=0;left=0;bottom=0;right=0;align=left;spacingLeft=6;fontStyle=1;strokeColor=#006658;fontColor=#5C5C5C;rounded=1;" parent="h9BGPUR_kHKGgyNdzhqx-53" vertex="1">
          <mxGeometry x="30" width="190" height="30" as="geometry">
            <mxRectangle width="190" height="30" as="alternateBounds" />
          </mxGeometry>
        </mxCell>
        <mxCell id="h9BGPUR_kHKGgyNdzhqx-56" value="" style="shape=partialRectangle;collapsible=0;dropTarget=0;pointerEvents=0;fillColor=none;points=[[0,0.5],[1,0.5]];portConstraint=eastwest;top=0;left=0;right=0;bottom=0;strokeColor=#006658;fontColor=#5C5C5C;rounded=1;" parent="h9BGPUR_kHKGgyNdzhqx-52" vertex="1">
          <mxGeometry y="60" width="220" height="30" as="geometry" />
        </mxCell>
        <mxCell id="h9BGPUR_kHKGgyNdzhqx-57" value="" style="shape=partialRectangle;overflow=hidden;connectable=0;fillColor=none;top=0;left=0;bottom=0;right=0;strokeColor=#006658;fontColor=#5C5C5C;rounded=1;" parent="h9BGPUR_kHKGgyNdzhqx-56" vertex="1">
          <mxGeometry width="30" height="30" as="geometry">
            <mxRectangle width="30" height="30" as="alternateBounds" />
          </mxGeometry>
        </mxCell>
        <mxCell id="h9BGPUR_kHKGgyNdzhqx-58" value="Service_Name" style="shape=partialRectangle;overflow=hidden;connectable=0;fillColor=none;top=0;left=0;bottom=0;right=0;align=left;spacingLeft=6;strokeColor=#006658;fontColor=#5C5C5C;rounded=1;" parent="h9BGPUR_kHKGgyNdzhqx-56" vertex="1">
          <mxGeometry x="30" width="190" height="30" as="geometry">
            <mxRectangle width="190" height="30" as="alternateBounds" />
          </mxGeometry>
        </mxCell>
        <mxCell id="h9BGPUR_kHKGgyNdzhqx-59" value="" style="shape=partialRectangle;collapsible=0;dropTarget=0;pointerEvents=0;fillColor=none;points=[[0,0.5],[1,0.5]];portConstraint=eastwest;top=0;left=0;right=0;bottom=0;strokeColor=#006658;fontColor=#5C5C5C;rounded=1;" parent="h9BGPUR_kHKGgyNdzhqx-52" vertex="1">
          <mxGeometry y="90" width="220" height="30" as="geometry" />
        </mxCell>
        <mxCell id="h9BGPUR_kHKGgyNdzhqx-60" value="" style="shape=partialRectangle;overflow=hidden;connectable=0;fillColor=none;top=0;left=0;bottom=0;right=0;strokeColor=#006658;fontColor=#5C5C5C;rounded=1;" parent="h9BGPUR_kHKGgyNdzhqx-59" vertex="1">
          <mxGeometry width="30" height="30" as="geometry">
            <mxRectangle width="30" height="30" as="alternateBounds" />
          </mxGeometry>
        </mxCell>
        <mxCell id="h9BGPUR_kHKGgyNdzhqx-61" value="Hourly_Rate" style="shape=partialRectangle;overflow=hidden;connectable=0;fillColor=none;top=0;left=0;bottom=0;right=0;align=left;spacingLeft=6;strokeColor=#006658;fontColor=#5C5C5C;rounded=1;" parent="h9BGPUR_kHKGgyNdzhqx-59" vertex="1">
          <mxGeometry x="30" width="190" height="30" as="geometry">
            <mxRectangle width="190" height="30" as="alternateBounds" />
          </mxGeometry>
        </mxCell>
        <mxCell id="h9BGPUR_kHKGgyNdzhqx-62" value="Parts" style="shape=table;startSize=30;container=1;collapsible=1;childLayout=tableLayout;fixedRows=1;rowLines=0;fontStyle=1;align=center;resizeLast=1;fillColor=#21C0A5;strokeColor=#006658;fontColor=#5C5C5C;rounded=1;" parent="h9BGPUR_kHKGgyNdzhqx-1" vertex="1">
          <mxGeometry x="1195" y="900" width="170" height="190" as="geometry" />
        </mxCell>
        <mxCell id="h9BGPUR_kHKGgyNdzhqx-63" value="" style="shape=partialRectangle;collapsible=0;dropTarget=0;pointerEvents=0;fillColor=none;top=0;left=0;bottom=1;right=0;points=[[0,0.5],[1,0.5]];portConstraint=eastwest;strokeColor=#006658;fontColor=#5C5C5C;rounded=1;" parent="h9BGPUR_kHKGgyNdzhqx-62" vertex="1">
          <mxGeometry y="30" width="170" height="30" as="geometry" />
        </mxCell>
        <mxCell id="h9BGPUR_kHKGgyNdzhqx-64" value="PK" style="shape=partialRectangle;connectable=0;fillColor=none;top=0;left=0;bottom=0;right=0;fontStyle=1;overflow=hidden;strokeColor=#006658;fontColor=#5C5C5C;rounded=1;" parent="h9BGPUR_kHKGgyNdzhqx-63" vertex="1">
          <mxGeometry width="30" height="30" as="geometry">
            <mxRectangle width="30" height="30" as="alternateBounds" />
          </mxGeometry>
        </mxCell>
        <mxCell id="h9BGPUR_kHKGgyNdzhqx-65" value="PartsID" style="shape=partialRectangle;connectable=0;fillColor=none;top=0;left=0;bottom=0;right=0;align=left;spacingLeft=6;fontStyle=1;overflow=hidden;strokeColor=#006658;fontColor=#5C5C5C;rounded=1;" parent="h9BGPUR_kHKGgyNdzhqx-63" vertex="1">
          <mxGeometry x="30" width="140" height="30" as="geometry">
            <mxRectangle width="140" height="30" as="alternateBounds" />
          </mxGeometry>
        </mxCell>
        <mxCell id="h9BGPUR_kHKGgyNdzhqx-66" value="" style="shape=partialRectangle;collapsible=0;dropTarget=0;pointerEvents=0;fillColor=none;top=0;left=0;bottom=0;right=0;points=[[0,0.5],[1,0.5]];portConstraint=eastwest;strokeColor=#006658;fontColor=#5C5C5C;rounded=1;" parent="h9BGPUR_kHKGgyNdzhqx-62" vertex="1">
          <mxGeometry y="60" width="170" height="30" as="geometry" />
        </mxCell>
        <mxCell id="h9BGPUR_kHKGgyNdzhqx-67" value="" style="shape=partialRectangle;connectable=0;fillColor=none;top=0;left=0;bottom=0;right=0;editable=1;overflow=hidden;strokeColor=#006658;fontColor=#5C5C5C;rounded=1;" parent="h9BGPUR_kHKGgyNdzhqx-66" vertex="1">
          <mxGeometry width="30" height="30" as="geometry">
            <mxRectangle width="30" height="30" as="alternateBounds" />
          </mxGeometry>
        </mxCell>
        <mxCell id="h9BGPUR_kHKGgyNdzhqx-68" value="Part_Number" style="shape=partialRectangle;connectable=0;fillColor=none;top=0;left=0;bottom=0;right=0;align=left;spacingLeft=6;overflow=hidden;strokeColor=#006658;fontColor=#5C5C5C;rounded=1;" parent="h9BGPUR_kHKGgyNdzhqx-66" vertex="1">
          <mxGeometry x="30" width="140" height="30" as="geometry">
            <mxRectangle width="140" height="30" as="alternateBounds" />
          </mxGeometry>
        </mxCell>
        <mxCell id="h9BGPUR_kHKGgyNdzhqx-69" value="" style="shape=partialRectangle;collapsible=0;dropTarget=0;pointerEvents=0;fillColor=none;top=0;left=0;bottom=0;right=0;points=[[0,0.5],[1,0.5]];portConstraint=eastwest;strokeColor=#006658;fontColor=#5C5C5C;rounded=1;" parent="h9BGPUR_kHKGgyNdzhqx-62" vertex="1">
          <mxGeometry y="90" width="170" height="30" as="geometry" />
        </mxCell>
        <mxCell id="h9BGPUR_kHKGgyNdzhqx-70" value="" style="shape=partialRectangle;connectable=0;fillColor=none;top=0;left=0;bottom=0;right=0;editable=1;overflow=hidden;strokeColor=#006658;fontColor=#5C5C5C;rounded=1;" parent="h9BGPUR_kHKGgyNdzhqx-69" vertex="1">
          <mxGeometry width="30" height="30" as="geometry">
            <mxRectangle width="30" height="30" as="alternateBounds" />
          </mxGeometry>
        </mxCell>
        <mxCell id="h9BGPUR_kHKGgyNdzhqx-71" value="Description" style="shape=partialRectangle;connectable=0;fillColor=none;top=0;left=0;bottom=0;right=0;align=left;spacingLeft=6;overflow=hidden;strokeColor=#006658;fontColor=#5C5C5C;rounded=1;" parent="h9BGPUR_kHKGgyNdzhqx-69" vertex="1">
          <mxGeometry x="30" width="140" height="30" as="geometry">
            <mxRectangle width="140" height="30" as="alternateBounds" />
          </mxGeometry>
        </mxCell>
        <mxCell id="h9BGPUR_kHKGgyNdzhqx-72" value="" style="shape=partialRectangle;collapsible=0;dropTarget=0;pointerEvents=0;fillColor=none;top=0;left=0;bottom=0;right=0;points=[[0,0.5],[1,0.5]];portConstraint=eastwest;strokeColor=#006658;fontColor=#5C5C5C;rounded=1;" parent="h9BGPUR_kHKGgyNdzhqx-62" vertex="1">
          <mxGeometry y="120" width="170" height="30" as="geometry" />
        </mxCell>
        <mxCell id="h9BGPUR_kHKGgyNdzhqx-73" value="" style="shape=partialRectangle;connectable=0;fillColor=none;top=0;left=0;bottom=0;right=0;editable=1;overflow=hidden;strokeColor=#006658;fontColor=#5C5C5C;rounded=1;" parent="h9BGPUR_kHKGgyNdzhqx-72" vertex="1">
          <mxGeometry width="30" height="30" as="geometry">
            <mxRectangle width="30" height="30" as="alternateBounds" />
          </mxGeometry>
        </mxCell>
        <mxCell id="h9BGPUR_kHKGgyNdzhqx-74" value="Purchase_Price" style="shape=partialRectangle;connectable=0;fillColor=none;top=0;left=0;bottom=0;right=0;align=left;spacingLeft=6;overflow=hidden;strokeColor=#006658;fontColor=#5C5C5C;rounded=1;" parent="h9BGPUR_kHKGgyNdzhqx-72" vertex="1">
          <mxGeometry x="30" width="140" height="30" as="geometry">
            <mxRectangle width="140" height="30" as="alternateBounds" />
          </mxGeometry>
        </mxCell>
        <mxCell id="h9BGPUR_kHKGgyNdzhqx-75" value="" style="shape=partialRectangle;collapsible=0;dropTarget=0;pointerEvents=0;fillColor=none;top=0;left=0;bottom=0;right=0;points=[[0,0.5],[1,0.5]];portConstraint=eastwest;strokeColor=#006658;fontColor=#5C5C5C;rounded=1;" parent="h9BGPUR_kHKGgyNdzhqx-62" vertex="1">
          <mxGeometry y="150" width="170" height="30" as="geometry" />
        </mxCell>
        <mxCell id="h9BGPUR_kHKGgyNdzhqx-76" value="" style="shape=partialRectangle;connectable=0;fillColor=none;top=0;left=0;bottom=0;right=0;editable=1;overflow=hidden;strokeColor=#006658;fontColor=#5C5C5C;rounded=1;" parent="h9BGPUR_kHKGgyNdzhqx-75" vertex="1">
          <mxGeometry width="30" height="30" as="geometry">
            <mxRectangle width="30" height="30" as="alternateBounds" />
          </mxGeometry>
        </mxCell>
        <mxCell id="h9BGPUR_kHKGgyNdzhqx-77" value="Retail_Price" style="shape=partialRectangle;connectable=0;fillColor=none;top=0;left=0;bottom=0;right=0;align=left;spacingLeft=6;overflow=hidden;strokeColor=#006658;fontColor=#5C5C5C;rounded=1;" parent="h9BGPUR_kHKGgyNdzhqx-75" vertex="1">
          <mxGeometry x="30" width="140" height="30" as="geometry">
            <mxRectangle width="140" height="30" as="alternateBounds" />
          </mxGeometry>
        </mxCell>
        <mxCell id="h9BGPUR_kHKGgyNdzhqx-78" style="edgeStyle=orthogonalEdgeStyle;jumpSize=13;orthogonalLoop=1;jettySize=auto;html=1;entryX=0.75;entryY=1;entryDx=0;entryDy=0;startArrow=ERzeroToMany;startFill=1;endArrow=ERmandOne;endFill=0;endSize=6;sourcePerimeterSpacing=0;targetPerimeterSpacing=0;strokeWidth=1;strokeColor=#006658;fontColor=#5C5C5C;" parent="h9BGPUR_kHKGgyNdzhqx-1" source="h9BGPUR_kHKGgyNdzhqx-79" target="h9BGPUR_kHKGgyNdzhqx-122" edge="1">
          <mxGeometry relative="1" as="geometry" />
        </mxCell>
        <mxCell id="h9BGPUR_kHKGgyNdzhqx-79" value="Parts Used" style="shape=table;startSize=30;container=1;collapsible=1;childLayout=tableLayout;fixedRows=1;rowLines=0;fontStyle=1;align=center;resizeLast=1;fillColor=#21C0A5;strokeColor=#006658;fontColor=#5C5C5C;rounded=1;" parent="h9BGPUR_kHKGgyNdzhqx-1" vertex="1">
          <mxGeometry x="735" y="890" width="165" height="190" as="geometry" />
        </mxCell>
        <mxCell id="h9BGPUR_kHKGgyNdzhqx-80" value="" style="shape=partialRectangle;collapsible=0;dropTarget=0;pointerEvents=0;fillColor=none;top=0;left=0;bottom=1;right=0;points=[[0,0.5],[1,0.5]];portConstraint=eastwest;strokeColor=#006658;fontColor=#5C5C5C;rounded=1;" parent="h9BGPUR_kHKGgyNdzhqx-79" vertex="1">
          <mxGeometry y="30" width="165" height="30" as="geometry" />
        </mxCell>
        <mxCell id="h9BGPUR_kHKGgyNdzhqx-81" value="PK" style="shape=partialRectangle;connectable=0;fillColor=none;top=0;left=0;bottom=0;right=0;fontStyle=1;overflow=hidden;strokeColor=#006658;fontColor=#5C5C5C;rounded=1;" parent="h9BGPUR_kHKGgyNdzhqx-80" vertex="1">
          <mxGeometry width="30" height="30" as="geometry">
            <mxRectangle width="30" height="30" as="alternateBounds" />
          </mxGeometry>
        </mxCell>
        <mxCell id="h9BGPUR_kHKGgyNdzhqx-82" value="PartsUsedID" style="shape=partialRectangle;connectable=0;fillColor=none;top=0;left=0;bottom=0;right=0;align=left;spacingLeft=6;fontStyle=1;overflow=hidden;strokeColor=#006658;fontColor=#5C5C5C;rounded=1;" parent="h9BGPUR_kHKGgyNdzhqx-80" vertex="1">
          <mxGeometry x="30" width="135" height="30" as="geometry">
            <mxRectangle width="135" height="30" as="alternateBounds" />
          </mxGeometry>
        </mxCell>
        <mxCell id="h9BGPUR_kHKGgyNdzhqx-83" value="" style="shape=partialRectangle;collapsible=0;dropTarget=0;pointerEvents=0;fillColor=none;top=0;left=0;bottom=0;right=0;points=[[0,0.5],[1,0.5]];portConstraint=eastwest;strokeColor=#006658;fontColor=#5C5C5C;rounded=1;" parent="h9BGPUR_kHKGgyNdzhqx-79" vertex="1">
          <mxGeometry y="60" width="165" height="30" as="geometry" />
        </mxCell>
        <mxCell id="h9BGPUR_kHKGgyNdzhqx-84" value="FK1" style="shape=partialRectangle;connectable=0;fillColor=none;top=0;left=0;bottom=0;right=0;editable=1;overflow=hidden;strokeColor=#006658;fontColor=#5C5C5C;rounded=1;" parent="h9BGPUR_kHKGgyNdzhqx-83" vertex="1">
          <mxGeometry width="30" height="30" as="geometry">
            <mxRectangle width="30" height="30" as="alternateBounds" />
          </mxGeometry>
        </mxCell>
        <mxCell id="h9BGPUR_kHKGgyNdzhqx-85" value="PartID" style="shape=partialRectangle;connectable=0;fillColor=none;top=0;left=0;bottom=0;right=0;align=left;spacingLeft=6;overflow=hidden;strokeColor=#006658;fontColor=#5C5C5C;rounded=1;" parent="h9BGPUR_kHKGgyNdzhqx-83" vertex="1">
          <mxGeometry x="30" width="135" height="30" as="geometry">
            <mxRectangle width="135" height="30" as="alternateBounds" />
          </mxGeometry>
        </mxCell>
        <mxCell id="h9BGPUR_kHKGgyNdzhqx-86" value="" style="shape=partialRectangle;collapsible=0;dropTarget=0;pointerEvents=0;fillColor=none;top=0;left=0;bottom=0;right=0;points=[[0,0.5],[1,0.5]];portConstraint=eastwest;strokeColor=#006658;fontColor=#5C5C5C;rounded=1;" parent="h9BGPUR_kHKGgyNdzhqx-79" vertex="1">
          <mxGeometry y="90" width="165" height="30" as="geometry" />
        </mxCell>
        <mxCell id="h9BGPUR_kHKGgyNdzhqx-87" value="FK2" style="shape=partialRectangle;connectable=0;fillColor=none;top=0;left=0;bottom=0;right=0;editable=1;overflow=hidden;strokeColor=#006658;fontColor=#5C5C5C;rounded=1;" parent="h9BGPUR_kHKGgyNdzhqx-86" vertex="1">
          <mxGeometry width="30" height="30" as="geometry">
            <mxRectangle width="30" height="30" as="alternateBounds" />
          </mxGeometry>
        </mxCell>
        <mxCell id="h9BGPUR_kHKGgyNdzhqx-88" value="ServiceTicketID" style="shape=partialRectangle;connectable=0;fillColor=none;top=0;left=0;bottom=0;right=0;align=left;spacingLeft=6;overflow=hidden;strokeColor=#006658;fontColor=#5C5C5C;rounded=1;" parent="h9BGPUR_kHKGgyNdzhqx-86" vertex="1">
          <mxGeometry x="30" width="135" height="30" as="geometry">
            <mxRectangle width="135" height="30" as="alternateBounds" />
          </mxGeometry>
        </mxCell>
        <mxCell id="h9BGPUR_kHKGgyNdzhqx-89" value="" style="shape=partialRectangle;collapsible=0;dropTarget=0;pointerEvents=0;fillColor=none;top=0;left=0;bottom=0;right=0;points=[[0,0.5],[1,0.5]];portConstraint=eastwest;strokeColor=#006658;fontColor=#5C5C5C;rounded=1;" parent="h9BGPUR_kHKGgyNdzhqx-79" vertex="1">
          <mxGeometry y="120" width="165" height="30" as="geometry" />
        </mxCell>
        <mxCell id="h9BGPUR_kHKGgyNdzhqx-90" value="" style="shape=partialRectangle;connectable=0;fillColor=none;top=0;left=0;bottom=0;right=0;editable=1;overflow=hidden;strokeColor=#006658;fontColor=#5C5C5C;rounded=1;" parent="h9BGPUR_kHKGgyNdzhqx-89" vertex="1">
          <mxGeometry width="30" height="30" as="geometry">
            <mxRectangle width="30" height="30" as="alternateBounds" />
          </mxGeometry>
        </mxCell>
        <mxCell id="h9BGPUR_kHKGgyNdzhqx-91" value="Number Used" style="shape=partialRectangle;connectable=0;fillColor=none;top=0;left=0;bottom=0;right=0;align=left;spacingLeft=6;overflow=hidden;strokeColor=#006658;fontColor=#5C5C5C;rounded=1;" parent="h9BGPUR_kHKGgyNdzhqx-89" vertex="1">
          <mxGeometry x="30" width="135" height="30" as="geometry">
            <mxRectangle width="135" height="30" as="alternateBounds" />
          </mxGeometry>
        </mxCell>
        <mxCell id="h9BGPUR_kHKGgyNdzhqx-92" value="" style="shape=partialRectangle;collapsible=0;dropTarget=0;pointerEvents=0;fillColor=none;top=0;left=0;bottom=0;right=0;points=[[0,0.5],[1,0.5]];portConstraint=eastwest;strokeColor=#006658;fontColor=#5C5C5C;rounded=1;" parent="h9BGPUR_kHKGgyNdzhqx-79" vertex="1">
          <mxGeometry y="150" width="165" height="30" as="geometry" />
        </mxCell>
        <mxCell id="h9BGPUR_kHKGgyNdzhqx-93" value="" style="shape=partialRectangle;connectable=0;fillColor=none;top=0;left=0;bottom=0;right=0;editable=1;overflow=hidden;strokeColor=#006658;fontColor=#5C5C5C;rounded=1;" parent="h9BGPUR_kHKGgyNdzhqx-92" vertex="1">
          <mxGeometry width="30" height="30" as="geometry">
            <mxRectangle width="30" height="30" as="alternateBounds" />
          </mxGeometry>
        </mxCell>
        <mxCell id="h9BGPUR_kHKGgyNdzhqx-94" value="Price" style="shape=partialRectangle;connectable=0;fillColor=none;top=0;left=0;bottom=0;right=0;align=left;spacingLeft=6;overflow=hidden;strokeColor=#006658;fontColor=#5C5C5C;rounded=1;" parent="h9BGPUR_kHKGgyNdzhqx-92" vertex="1">
          <mxGeometry x="30" width="135" height="30" as="geometry">
            <mxRectangle width="135" height="30" as="alternateBounds" />
          </mxGeometry>
        </mxCell>
        <mxCell id="h9BGPUR_kHKGgyNdzhqx-95" style="edgeStyle=orthogonalEdgeStyle;jumpSize=13;orthogonalLoop=1;jettySize=auto;html=1;exitX=0.5;exitY=0;exitDx=0;exitDy=0;entryX=0;entryY=0.5;entryDx=0;entryDy=0;startArrow=ERoneToMany;startFill=0;endArrow=ERmandOne;endFill=0;endSize=6;sourcePerimeterSpacing=0;targetPerimeterSpacing=0;strokeWidth=1;strokeColor=#006658;fontColor=#5C5C5C;" parent="h9BGPUR_kHKGgyNdzhqx-1" source="h9BGPUR_kHKGgyNdzhqx-96" target="h9BGPUR_kHKGgyNdzhqx-132" edge="1">
          <mxGeometry relative="1" as="geometry" />
        </mxCell>
        <mxCell id="h9BGPUR_kHKGgyNdzhqx-96" value="Service Mechanic" style="shape=table;startSize=30;container=1;collapsible=1;childLayout=tableLayout;fixedRows=1;rowLines=0;fontStyle=1;align=center;resizeLast=1;fillColor=#21C0A5;strokeColor=#006658;fontColor=#5C5C5C;rounded=1;" parent="h9BGPUR_kHKGgyNdzhqx-1" vertex="1">
          <mxGeometry x="325" y="830" width="180" height="280" as="geometry" />
        </mxCell>
        <mxCell id="h9BGPUR_kHKGgyNdzhqx-97" value="" style="shape=partialRectangle;collapsible=0;dropTarget=0;pointerEvents=0;fillColor=none;top=0;left=0;bottom=1;right=0;points=[[0,0.5],[1,0.5]];portConstraint=eastwest;fontStyle=0;strokeColor=#006658;fontColor=#5C5C5C;rounded=1;" parent="h9BGPUR_kHKGgyNdzhqx-96" vertex="1">
          <mxGeometry y="30" width="180" height="30" as="geometry" />
        </mxCell>
        <mxCell id="h9BGPUR_kHKGgyNdzhqx-98" value="PK" style="shape=partialRectangle;connectable=0;fillColor=none;top=0;left=0;bottom=0;right=0;fontStyle=1;overflow=hidden;strokeColor=#006658;fontColor=#5C5C5C;rounded=1;" parent="h9BGPUR_kHKGgyNdzhqx-97" vertex="1">
          <mxGeometry width="30" height="30" as="geometry">
            <mxRectangle width="30" height="30" as="alternateBounds" />
          </mxGeometry>
        </mxCell>
        <mxCell id="h9BGPUR_kHKGgyNdzhqx-99" value="ServiceMechanicID" style="shape=partialRectangle;connectable=0;fillColor=none;top=0;left=0;bottom=0;right=0;align=left;spacingLeft=6;fontStyle=1;overflow=hidden;strokeColor=#006658;fontColor=#5C5C5C;rounded=1;" parent="h9BGPUR_kHKGgyNdzhqx-97" vertex="1">
          <mxGeometry x="30" width="150" height="30" as="geometry">
            <mxRectangle width="150" height="30" as="alternateBounds" />
          </mxGeometry>
        </mxCell>
        <mxCell id="h9BGPUR_kHKGgyNdzhqx-100" value="" style="shape=partialRectangle;collapsible=0;dropTarget=0;pointerEvents=0;fillColor=none;top=0;left=0;bottom=0;right=0;points=[[0,0.5],[1,0.5]];portConstraint=eastwest;strokeColor=#006658;fontColor=#5C5C5C;rounded=1;" parent="h9BGPUR_kHKGgyNdzhqx-96" vertex="1">
          <mxGeometry y="60" width="180" height="30" as="geometry" />
        </mxCell>
        <mxCell id="h9BGPUR_kHKGgyNdzhqx-101" value="FK1" style="shape=partialRectangle;connectable=0;fillColor=none;top=0;left=0;bottom=0;right=0;editable=1;overflow=hidden;strokeColor=#006658;fontColor=#5C5C5C;rounded=1;" parent="h9BGPUR_kHKGgyNdzhqx-100" vertex="1">
          <mxGeometry width="30" height="30" as="geometry">
            <mxRectangle width="30" height="30" as="alternateBounds" />
          </mxGeometry>
        </mxCell>
        <mxCell id="h9BGPUR_kHKGgyNdzhqx-102" value="MechanicID" style="shape=partialRectangle;connectable=0;fillColor=none;top=0;left=0;bottom=0;right=0;align=left;spacingLeft=6;overflow=hidden;strokeColor=#006658;fontColor=#5C5C5C;rounded=1;" parent="h9BGPUR_kHKGgyNdzhqx-100" vertex="1">
          <mxGeometry x="30" width="150" height="30" as="geometry">
            <mxRectangle width="150" height="30" as="alternateBounds" />
          </mxGeometry>
        </mxCell>
        <mxCell id="h9BGPUR_kHKGgyNdzhqx-103" value="" style="shape=partialRectangle;collapsible=0;dropTarget=0;pointerEvents=0;fillColor=none;top=0;left=0;bottom=0;right=0;points=[[0,0.5],[1,0.5]];portConstraint=eastwest;strokeColor=#006658;fontColor=#5C5C5C;rounded=1;" parent="h9BGPUR_kHKGgyNdzhqx-96" vertex="1">
          <mxGeometry y="90" width="180" height="30" as="geometry" />
        </mxCell>
        <mxCell id="h9BGPUR_kHKGgyNdzhqx-104" value="FK2" style="shape=partialRectangle;connectable=0;fillColor=none;top=0;left=0;bottom=0;right=0;editable=1;overflow=hidden;strokeColor=#006658;fontColor=#5C5C5C;rounded=1;" parent="h9BGPUR_kHKGgyNdzhqx-103" vertex="1">
          <mxGeometry width="30" height="30" as="geometry">
            <mxRectangle width="30" height="30" as="alternateBounds" />
          </mxGeometry>
        </mxCell>
        <mxCell id="h9BGPUR_kHKGgyNdzhqx-105" value="ServiceTicketID" style="shape=partialRectangle;connectable=0;fillColor=none;top=0;left=0;bottom=0;right=0;align=left;spacingLeft=6;overflow=hidden;strokeColor=#006658;fontColor=#5C5C5C;rounded=1;" parent="h9BGPUR_kHKGgyNdzhqx-103" vertex="1">
          <mxGeometry x="30" width="150" height="30" as="geometry">
            <mxRectangle width="150" height="30" as="alternateBounds" />
          </mxGeometry>
        </mxCell>
        <mxCell id="h9BGPUR_kHKGgyNdzhqx-106" value="" style="shape=partialRectangle;collapsible=0;dropTarget=0;pointerEvents=0;fillColor=none;top=0;left=0;bottom=0;right=0;points=[[0,0.5],[1,0.5]];portConstraint=eastwest;strokeColor=#006658;fontColor=#5C5C5C;rounded=1;" parent="h9BGPUR_kHKGgyNdzhqx-96" vertex="1">
          <mxGeometry y="120" width="180" height="30" as="geometry" />
        </mxCell>
        <mxCell id="h9BGPUR_kHKGgyNdzhqx-107" value="FK3" style="shape=partialRectangle;connectable=0;fillColor=none;top=0;left=0;bottom=0;right=0;editable=1;overflow=hidden;strokeColor=#006658;fontColor=#5C5C5C;rounded=1;" parent="h9BGPUR_kHKGgyNdzhqx-106" vertex="1">
          <mxGeometry width="30" height="30" as="geometry">
            <mxRectangle width="30" height="30" as="alternateBounds" />
          </mxGeometry>
        </mxCell>
        <mxCell id="h9BGPUR_kHKGgyNdzhqx-108" value="ServiceID" style="shape=partialRectangle;connectable=0;fillColor=none;top=0;left=0;bottom=0;right=0;align=left;spacingLeft=6;overflow=hidden;strokeColor=#006658;fontColor=#5C5C5C;rounded=1;" parent="h9BGPUR_kHKGgyNdzhqx-106" vertex="1">
          <mxGeometry x="30" width="150" height="30" as="geometry">
            <mxRectangle width="150" height="30" as="alternateBounds" />
          </mxGeometry>
        </mxCell>
        <mxCell id="h9BGPUR_kHKGgyNdzhqx-109" value="" style="shape=partialRectangle;collapsible=0;dropTarget=0;pointerEvents=0;fillColor=none;top=0;left=0;bottom=0;right=0;points=[[0,0.5],[1,0.5]];portConstraint=eastwest;strokeColor=#006658;fontColor=#5C5C5C;rounded=1;" parent="h9BGPUR_kHKGgyNdzhqx-96" vertex="1">
          <mxGeometry y="150" width="180" height="30" as="geometry" />
        </mxCell>
        <mxCell id="h9BGPUR_kHKGgyNdzhqx-110" value="" style="shape=partialRectangle;connectable=0;fillColor=none;top=0;left=0;bottom=0;right=0;editable=1;overflow=hidden;strokeColor=#006658;fontColor=#5C5C5C;rounded=1;" parent="h9BGPUR_kHKGgyNdzhqx-109" vertex="1">
          <mxGeometry width="30" height="30" as="geometry">
            <mxRectangle width="30" height="30" as="alternateBounds" />
          </mxGeometry>
        </mxCell>
        <mxCell id="h9BGPUR_kHKGgyNdzhqx-111" value="Hours" style="shape=partialRectangle;connectable=0;fillColor=none;top=0;left=0;bottom=0;right=0;align=left;spacingLeft=6;overflow=hidden;strokeColor=#006658;fontColor=#5C5C5C;rounded=1;" parent="h9BGPUR_kHKGgyNdzhqx-109" vertex="1">
          <mxGeometry x="30" width="150" height="30" as="geometry">
            <mxRectangle width="150" height="30" as="alternateBounds" />
          </mxGeometry>
        </mxCell>
        <mxCell id="h9BGPUR_kHKGgyNdzhqx-112" value="" style="shape=partialRectangle;collapsible=0;dropTarget=0;pointerEvents=0;fillColor=none;top=0;left=0;bottom=0;right=0;points=[[0,0.5],[1,0.5]];portConstraint=eastwest;strokeColor=#006658;fontColor=#5C5C5C;rounded=1;" parent="h9BGPUR_kHKGgyNdzhqx-96" vertex="1">
          <mxGeometry y="180" width="180" height="30" as="geometry" />
        </mxCell>
        <mxCell id="h9BGPUR_kHKGgyNdzhqx-113" value="" style="shape=partialRectangle;connectable=0;fillColor=none;top=0;left=0;bottom=0;right=0;editable=1;overflow=hidden;strokeColor=#006658;fontColor=#5C5C5C;rounded=1;" parent="h9BGPUR_kHKGgyNdzhqx-112" vertex="1">
          <mxGeometry width="30" height="30" as="geometry">
            <mxRectangle width="30" height="30" as="alternateBounds" />
          </mxGeometry>
        </mxCell>
        <mxCell id="h9BGPUR_kHKGgyNdzhqx-114" value="Comment" style="shape=partialRectangle;connectable=0;fillColor=none;top=0;left=0;bottom=0;right=0;align=left;spacingLeft=6;overflow=hidden;strokeColor=#006658;fontColor=#5C5C5C;rounded=1;" parent="h9BGPUR_kHKGgyNdzhqx-112" vertex="1">
          <mxGeometry x="30" width="150" height="30" as="geometry">
            <mxRectangle width="150" height="30" as="alternateBounds" />
          </mxGeometry>
        </mxCell>
        <mxCell id="h9BGPUR_kHKGgyNdzhqx-115" value="" style="shape=partialRectangle;collapsible=0;dropTarget=0;pointerEvents=0;fillColor=none;top=0;left=0;bottom=0;right=0;points=[[0,0.5],[1,0.5]];portConstraint=eastwest;strokeColor=#006658;fontColor=#5C5C5C;rounded=1;" parent="h9BGPUR_kHKGgyNdzhqx-96" vertex="1">
          <mxGeometry y="210" width="180" height="30" as="geometry" />
        </mxCell>
        <mxCell id="h9BGPUR_kHKGgyNdzhqx-116" value="" style="shape=partialRectangle;connectable=0;fillColor=none;top=0;left=0;bottom=0;right=0;editable=1;overflow=hidden;strokeColor=#006658;fontColor=#5C5C5C;rounded=1;" parent="h9BGPUR_kHKGgyNdzhqx-115" vertex="1">
          <mxGeometry width="30" height="30" as="geometry">
            <mxRectangle width="30" height="30" as="alternateBounds" />
          </mxGeometry>
        </mxCell>
        <mxCell id="h9BGPUR_kHKGgyNdzhqx-117" value="Comment" style="shape=partialRectangle;connectable=0;fillColor=none;top=0;left=0;bottom=0;right=0;align=left;spacingLeft=6;overflow=hidden;strokeColor=#006658;fontColor=#5C5C5C;rounded=1;" parent="h9BGPUR_kHKGgyNdzhqx-115" vertex="1">
          <mxGeometry x="30" width="150" height="30" as="geometry">
            <mxRectangle width="150" height="30" as="alternateBounds" />
          </mxGeometry>
        </mxCell>
        <mxCell id="h9BGPUR_kHKGgyNdzhqx-118" value="" style="shape=partialRectangle;collapsible=0;dropTarget=0;pointerEvents=0;fillColor=none;top=0;left=0;bottom=0;right=0;points=[[0,0.5],[1,0.5]];portConstraint=eastwest;strokeColor=#006658;fontColor=#5C5C5C;rounded=1;" parent="h9BGPUR_kHKGgyNdzhqx-96" vertex="1">
          <mxGeometry y="240" width="180" height="30" as="geometry" />
        </mxCell>
        <mxCell id="h9BGPUR_kHKGgyNdzhqx-119" value="" style="shape=partialRectangle;connectable=0;fillColor=none;top=0;left=0;bottom=0;right=0;editable=1;overflow=hidden;strokeColor=#006658;fontColor=#5C5C5C;rounded=1;" parent="h9BGPUR_kHKGgyNdzhqx-118" vertex="1">
          <mxGeometry width="30" height="30" as="geometry">
            <mxRectangle width="30" height="30" as="alternateBounds" />
          </mxGeometry>
        </mxCell>
        <mxCell id="h9BGPUR_kHKGgyNdzhqx-120" value="Rate" style="shape=partialRectangle;connectable=0;fillColor=none;top=0;left=0;bottom=0;right=0;align=left;spacingLeft=6;overflow=hidden;strokeColor=#006658;fontColor=#5C5C5C;rounded=1;" parent="h9BGPUR_kHKGgyNdzhqx-118" vertex="1">
          <mxGeometry x="30" width="150" height="30" as="geometry">
            <mxRectangle width="150" height="30" as="alternateBounds" />
          </mxGeometry>
        </mxCell>
        <mxCell id="h9BGPUR_kHKGgyNdzhqx-121" style="edgeStyle=orthogonalEdgeStyle;jumpSize=13;orthogonalLoop=1;jettySize=auto;html=1;exitX=0.75;exitY=0;exitDx=0;exitDy=0;startArrow=ERzeroToMany;startFill=1;endArrow=ERmandOne;endFill=0;endSize=6;targetPerimeterSpacing=0;strokeWidth=1;sourcePerimeterSpacing=0;strokeColor=#006658;fontColor=#5C5C5C;" parent="h9BGPUR_kHKGgyNdzhqx-1" source="h9BGPUR_kHKGgyNdzhqx-122" target="h9BGPUR_kHKGgyNdzhqx-21" edge="1">
          <mxGeometry relative="1" as="geometry" />
        </mxCell>
        <mxCell id="h9BGPUR_kHKGgyNdzhqx-122" value="Service Ticket" style="shape=table;startSize=30;container=1;collapsible=1;childLayout=tableLayout;fixedRows=1;rowLines=0;fontStyle=1;align=center;resizeLast=1;fillColor=#21C0A5;strokeColor=#006658;fontColor=#5C5C5C;rounded=1;" parent="h9BGPUR_kHKGgyNdzhqx-1" vertex="1">
          <mxGeometry x="635" y="490" width="220" height="250" as="geometry" />
        </mxCell>
        <mxCell id="h9BGPUR_kHKGgyNdzhqx-123" value="" style="shape=partialRectangle;collapsible=0;dropTarget=0;pointerEvents=0;fillColor=none;top=0;left=0;bottom=1;right=0;points=[[0,0.5],[1,0.5]];portConstraint=eastwest;strokeColor=#006658;fontColor=#5C5C5C;rounded=1;" parent="h9BGPUR_kHKGgyNdzhqx-122" vertex="1">
          <mxGeometry y="30" width="220" height="30" as="geometry" />
        </mxCell>
        <mxCell id="h9BGPUR_kHKGgyNdzhqx-124" value="PK" style="shape=partialRectangle;connectable=0;fillColor=none;top=0;left=0;bottom=0;right=0;fontStyle=1;overflow=hidden;strokeColor=#006658;fontColor=#5C5C5C;rounded=1;" parent="h9BGPUR_kHKGgyNdzhqx-123" vertex="1">
          <mxGeometry width="30" height="30" as="geometry">
            <mxRectangle width="30" height="30" as="alternateBounds" />
          </mxGeometry>
        </mxCell>
        <mxCell id="h9BGPUR_kHKGgyNdzhqx-125" value="ServiceTicketID" style="shape=partialRectangle;connectable=0;fillColor=none;top=0;left=0;bottom=0;right=0;align=left;spacingLeft=6;fontStyle=5;overflow=hidden;strokeColor=#006658;fontColor=#5C5C5C;rounded=1;" parent="h9BGPUR_kHKGgyNdzhqx-123" vertex="1">
          <mxGeometry x="30" width="190" height="30" as="geometry">
            <mxRectangle width="190" height="30" as="alternateBounds" />
          </mxGeometry>
        </mxCell>
        <mxCell id="h9BGPUR_kHKGgyNdzhqx-126" value="" style="shape=partialRectangle;collapsible=0;dropTarget=0;pointerEvents=0;fillColor=none;top=0;left=0;bottom=0;right=0;points=[[0,0.5],[1,0.5]];portConstraint=eastwest;strokeColor=#006658;fontColor=#5C5C5C;rounded=1;" parent="h9BGPUR_kHKGgyNdzhqx-122" vertex="1">
          <mxGeometry y="60" width="220" height="30" as="geometry" />
        </mxCell>
        <mxCell id="h9BGPUR_kHKGgyNdzhqx-127" value="" style="shape=partialRectangle;connectable=0;fillColor=none;top=0;left=0;bottom=0;right=0;editable=1;overflow=hidden;strokeColor=#006658;fontColor=#5C5C5C;rounded=1;" parent="h9BGPUR_kHKGgyNdzhqx-126" vertex="1">
          <mxGeometry width="30" height="30" as="geometry">
            <mxRectangle width="30" height="30" as="alternateBounds" />
          </mxGeometry>
        </mxCell>
        <mxCell id="h9BGPUR_kHKGgyNdzhqx-128" value="ServiceTicketNumber " style="shape=partialRectangle;connectable=0;fillColor=none;top=0;left=0;bottom=0;right=0;align=left;spacingLeft=6;overflow=hidden;strokeColor=#006658;fontColor=#5C5C5C;rounded=1;" parent="h9BGPUR_kHKGgyNdzhqx-126" vertex="1">
          <mxGeometry x="30" width="190" height="30" as="geometry">
            <mxRectangle width="190" height="30" as="alternateBounds" />
          </mxGeometry>
        </mxCell>
        <mxCell id="h9BGPUR_kHKGgyNdzhqx-129" value="" style="shape=partialRectangle;collapsible=0;dropTarget=0;pointerEvents=0;fillColor=none;top=0;left=0;bottom=0;right=0;points=[[0,0.5],[1,0.5]];portConstraint=eastwest;strokeColor=#006658;fontColor=#5C5C5C;rounded=1;" parent="h9BGPUR_kHKGgyNdzhqx-122" vertex="1">
          <mxGeometry y="90" width="220" height="30" as="geometry" />
        </mxCell>
        <mxCell id="h9BGPUR_kHKGgyNdzhqx-130" value="FK1" style="shape=partialRectangle;connectable=0;fillColor=none;top=0;left=0;bottom=0;right=0;editable=1;overflow=hidden;strokeColor=#006658;fontColor=#5C5C5C;rounded=1;" parent="h9BGPUR_kHKGgyNdzhqx-129" vertex="1">
          <mxGeometry width="30" height="30" as="geometry">
            <mxRectangle width="30" height="30" as="alternateBounds" />
          </mxGeometry>
        </mxCell>
        <mxCell id="h9BGPUR_kHKGgyNdzhqx-131" value="CarID" style="shape=partialRectangle;connectable=0;fillColor=none;top=0;left=0;bottom=0;right=0;align=left;spacingLeft=6;overflow=hidden;strokeColor=#006658;fontColor=#5C5C5C;rounded=1;" parent="h9BGPUR_kHKGgyNdzhqx-129" vertex="1">
          <mxGeometry x="30" width="190" height="30" as="geometry">
            <mxRectangle width="190" height="30" as="alternateBounds" />
          </mxGeometry>
        </mxCell>
        <mxCell id="h9BGPUR_kHKGgyNdzhqx-132" value="" style="shape=partialRectangle;collapsible=0;dropTarget=0;pointerEvents=0;fillColor=none;top=0;left=0;bottom=0;right=0;points=[[0,0.5],[1,0.5]];portConstraint=eastwest;strokeColor=#006658;fontColor=#5C5C5C;rounded=1;" parent="h9BGPUR_kHKGgyNdzhqx-122" vertex="1">
          <mxGeometry y="120" width="220" height="30" as="geometry" />
        </mxCell>
        <mxCell id="h9BGPUR_kHKGgyNdzhqx-133" value="FK2" style="shape=partialRectangle;connectable=0;fillColor=none;top=0;left=0;bottom=0;right=0;editable=1;overflow=hidden;strokeColor=#006658;fontColor=#5C5C5C;rounded=1;" parent="h9BGPUR_kHKGgyNdzhqx-132" vertex="1">
          <mxGeometry width="30" height="30" as="geometry">
            <mxRectangle width="30" height="30" as="alternateBounds" />
          </mxGeometry>
        </mxCell>
        <mxCell id="h9BGPUR_kHKGgyNdzhqx-134" value="CustomerID" style="shape=partialRectangle;connectable=0;fillColor=none;top=0;left=0;bottom=0;right=0;align=left;spacingLeft=6;overflow=hidden;strokeColor=#006658;fontColor=#5C5C5C;rounded=1;" parent="h9BGPUR_kHKGgyNdzhqx-132" vertex="1">
          <mxGeometry x="30" width="190" height="30" as="geometry">
            <mxRectangle width="190" height="30" as="alternateBounds" />
          </mxGeometry>
        </mxCell>
        <mxCell id="h9BGPUR_kHKGgyNdzhqx-135" value="" style="shape=partialRectangle;collapsible=0;dropTarget=0;pointerEvents=0;fillColor=none;top=0;left=0;bottom=0;right=0;points=[[0,0.5],[1,0.5]];portConstraint=eastwest;strokeColor=#006658;fontColor=#5C5C5C;rounded=1;" parent="h9BGPUR_kHKGgyNdzhqx-122" vertex="1">
          <mxGeometry y="150" width="220" height="30" as="geometry" />
        </mxCell>
        <mxCell id="h9BGPUR_kHKGgyNdzhqx-136" value="" style="shape=partialRectangle;connectable=0;fillColor=none;top=0;left=0;bottom=0;right=0;editable=1;overflow=hidden;strokeColor=#006658;fontColor=#5C5C5C;rounded=1;" parent="h9BGPUR_kHKGgyNdzhqx-135" vertex="1">
          <mxGeometry width="30" height="30" as="geometry">
            <mxRectangle width="30" height="30" as="alternateBounds" />
          </mxGeometry>
        </mxCell>
        <mxCell id="h9BGPUR_kHKGgyNdzhqx-137" value="DateRecieved" style="shape=partialRectangle;connectable=0;fillColor=none;top=0;left=0;bottom=0;right=0;align=left;spacingLeft=6;overflow=hidden;strokeColor=#006658;fontColor=#5C5C5C;rounded=1;" parent="h9BGPUR_kHKGgyNdzhqx-135" vertex="1">
          <mxGeometry x="30" width="190" height="30" as="geometry">
            <mxRectangle width="190" height="30" as="alternateBounds" />
          </mxGeometry>
        </mxCell>
        <mxCell id="h9BGPUR_kHKGgyNdzhqx-138" value="" style="shape=partialRectangle;collapsible=0;dropTarget=0;pointerEvents=0;fillColor=none;top=0;left=0;bottom=0;right=0;points=[[0,0.5],[1,0.5]];portConstraint=eastwest;strokeColor=#006658;fontColor=#5C5C5C;rounded=1;" parent="h9BGPUR_kHKGgyNdzhqx-122" vertex="1">
          <mxGeometry y="180" width="220" height="30" as="geometry" />
        </mxCell>
        <mxCell id="h9BGPUR_kHKGgyNdzhqx-139" value="" style="shape=partialRectangle;connectable=0;fillColor=none;top=0;left=0;bottom=0;right=0;editable=1;overflow=hidden;strokeColor=#006658;fontColor=#5C5C5C;rounded=1;" parent="h9BGPUR_kHKGgyNdzhqx-138" vertex="1">
          <mxGeometry width="30" height="30" as="geometry">
            <mxRectangle width="30" height="30" as="alternateBounds" />
          </mxGeometry>
        </mxCell>
        <mxCell id="h9BGPUR_kHKGgyNdzhqx-140" value="Comments" style="shape=partialRectangle;connectable=0;fillColor=none;top=0;left=0;bottom=0;right=0;align=left;spacingLeft=6;overflow=hidden;strokeColor=#006658;fontColor=#5C5C5C;rounded=1;" parent="h9BGPUR_kHKGgyNdzhqx-138" vertex="1">
          <mxGeometry x="30" width="190" height="30" as="geometry">
            <mxRectangle width="190" height="30" as="alternateBounds" />
          </mxGeometry>
        </mxCell>
        <mxCell id="h9BGPUR_kHKGgyNdzhqx-141" value="" style="shape=partialRectangle;collapsible=0;dropTarget=0;pointerEvents=0;fillColor=none;top=0;left=0;bottom=0;right=0;points=[[0,0.5],[1,0.5]];portConstraint=eastwest;strokeColor=#006658;fontColor=#5C5C5C;rounded=1;" parent="h9BGPUR_kHKGgyNdzhqx-122" vertex="1">
          <mxGeometry y="210" width="220" height="30" as="geometry" />
        </mxCell>
        <mxCell id="h9BGPUR_kHKGgyNdzhqx-142" value="" style="shape=partialRectangle;connectable=0;fillColor=none;top=0;left=0;bottom=0;right=0;editable=1;overflow=hidden;strokeColor=#006658;fontColor=#5C5C5C;rounded=1;" parent="h9BGPUR_kHKGgyNdzhqx-141" vertex="1">
          <mxGeometry width="30" height="30" as="geometry">
            <mxRectangle width="30" height="30" as="alternateBounds" />
          </mxGeometry>
        </mxCell>
        <mxCell id="h9BGPUR_kHKGgyNdzhqx-143" value="DateReturnedtoCustomer" style="shape=partialRectangle;connectable=0;fillColor=none;top=0;left=0;bottom=0;right=0;align=left;spacingLeft=6;overflow=hidden;strokeColor=#006658;fontColor=#5C5C5C;rounded=1;" parent="h9BGPUR_kHKGgyNdzhqx-141" vertex="1">
          <mxGeometry x="30" width="190" height="30" as="geometry">
            <mxRectangle width="190" height="30" as="alternateBounds" />
          </mxGeometry>
        </mxCell>
        <mxCell id="h9BGPUR_kHKGgyNdzhqx-144" value="Mechanic" style="shape=table;startSize=30;container=1;collapsible=1;childLayout=tableLayout;fixedRows=1;rowLines=0;fontStyle=1;align=center;resizeLast=1;fillColor=#21C0A5;strokeColor=#006658;fontColor=#5C5C5C;rounded=1;" parent="h9BGPUR_kHKGgyNdzhqx-1" vertex="1">
          <mxGeometry x="205" y="500" width="180" height="140" as="geometry" />
        </mxCell>
        <mxCell id="h9BGPUR_kHKGgyNdzhqx-145" value="" style="shape=partialRectangle;collapsible=0;dropTarget=0;pointerEvents=0;fillColor=none;top=0;left=0;bottom=1;right=0;points=[[0,0.5],[1,0.5]];portConstraint=eastwest;strokeColor=#006658;fontColor=#5C5C5C;rounded=1;" parent="h9BGPUR_kHKGgyNdzhqx-144" vertex="1">
          <mxGeometry y="30" width="180" height="30" as="geometry" />
        </mxCell>
        <mxCell id="h9BGPUR_kHKGgyNdzhqx-146" value="PK" style="shape=partialRectangle;connectable=0;fillColor=none;top=0;left=0;bottom=0;right=0;fontStyle=1;overflow=hidden;strokeColor=#006658;fontColor=#5C5C5C;rounded=1;" parent="h9BGPUR_kHKGgyNdzhqx-145" vertex="1">
          <mxGeometry width="30" height="30" as="geometry">
            <mxRectangle width="30" height="30" as="alternateBounds" />
          </mxGeometry>
        </mxCell>
        <mxCell id="h9BGPUR_kHKGgyNdzhqx-147" value="MechanicID" style="shape=partialRectangle;connectable=0;fillColor=none;top=0;left=0;bottom=0;right=0;align=left;spacingLeft=6;fontStyle=5;overflow=hidden;strokeColor=#006658;fontColor=#5C5C5C;rounded=1;" parent="h9BGPUR_kHKGgyNdzhqx-145" vertex="1">
          <mxGeometry x="30" width="150" height="30" as="geometry">
            <mxRectangle width="150" height="30" as="alternateBounds" />
          </mxGeometry>
        </mxCell>
        <mxCell id="h9BGPUR_kHKGgyNdzhqx-148" value="" style="shape=partialRectangle;collapsible=0;dropTarget=0;pointerEvents=0;fillColor=none;top=0;left=0;bottom=0;right=0;points=[[0,0.5],[1,0.5]];portConstraint=eastwest;strokeColor=#006658;fontColor=#5C5C5C;rounded=1;" parent="h9BGPUR_kHKGgyNdzhqx-144" vertex="1">
          <mxGeometry y="60" width="180" height="40" as="geometry" />
        </mxCell>
        <mxCell id="h9BGPUR_kHKGgyNdzhqx-149" value="" style="shape=partialRectangle;connectable=0;fillColor=none;top=0;left=0;bottom=0;right=0;editable=1;overflow=hidden;strokeColor=#006658;fontColor=#5C5C5C;rounded=1;" parent="h9BGPUR_kHKGgyNdzhqx-148" vertex="1">
          <mxGeometry width="30" height="40" as="geometry">
            <mxRectangle width="30" height="40" as="alternateBounds" />
          </mxGeometry>
        </mxCell>
        <mxCell id="h9BGPUR_kHKGgyNdzhqx-150" value="LastName" style="shape=partialRectangle;connectable=0;fillColor=none;top=0;left=0;bottom=0;right=0;align=left;spacingLeft=6;overflow=hidden;strokeColor=#006658;fontColor=#5C5C5C;rounded=1;" parent="h9BGPUR_kHKGgyNdzhqx-148" vertex="1">
          <mxGeometry x="30" width="150" height="40" as="geometry">
            <mxRectangle width="150" height="40" as="alternateBounds" />
          </mxGeometry>
        </mxCell>
        <mxCell id="h9BGPUR_kHKGgyNdzhqx-151" value="" style="shape=partialRectangle;collapsible=0;dropTarget=0;pointerEvents=0;fillColor=none;top=0;left=0;bottom=0;right=0;points=[[0,0.5],[1,0.5]];portConstraint=eastwest;strokeColor=#006658;fontColor=#5C5C5C;rounded=1;" parent="h9BGPUR_kHKGgyNdzhqx-144" vertex="1">
          <mxGeometry y="100" width="180" height="30" as="geometry" />
        </mxCell>
        <mxCell id="h9BGPUR_kHKGgyNdzhqx-152" value="" style="shape=partialRectangle;connectable=0;fillColor=none;top=0;left=0;bottom=0;right=0;editable=1;overflow=hidden;strokeColor=#006658;fontColor=#5C5C5C;rounded=1;" parent="h9BGPUR_kHKGgyNdzhqx-151" vertex="1">
          <mxGeometry width="30" height="30" as="geometry">
            <mxRectangle width="30" height="30" as="alternateBounds" />
          </mxGeometry>
        </mxCell>
        <mxCell id="h9BGPUR_kHKGgyNdzhqx-153" value="FirstName" style="shape=partialRectangle;connectable=0;fillColor=none;top=0;left=0;bottom=0;right=0;align=left;spacingLeft=6;overflow=hidden;strokeColor=#006658;fontColor=#5C5C5C;rounded=1;" parent="h9BGPUR_kHKGgyNdzhqx-151" vertex="1">
          <mxGeometry x="30" width="150" height="30" as="geometry">
            <mxRectangle width="150" height="30" as="alternateBounds" />
          </mxGeometry>
        </mxCell>
        <mxCell id="h9BGPUR_kHKGgyNdzhqx-154" value="Sales Invoice" style="shape=table;startSize=30;container=1;collapsible=1;childLayout=tableLayout;fixedRows=1;rowLines=0;fontStyle=1;align=center;resizeLast=1;fillColor=#21C0A5;strokeColor=#006658;fontColor=#5C5C5C;rounded=1;" parent="h9BGPUR_kHKGgyNdzhqx-1" vertex="1">
          <mxGeometry x="535" y="220" width="180" height="220" as="geometry" />
        </mxCell>
        <mxCell id="h9BGPUR_kHKGgyNdzhqx-155" value="" style="shape=partialRectangle;collapsible=0;dropTarget=0;pointerEvents=0;fillColor=none;top=0;left=0;bottom=1;right=0;points=[[0,0.5],[1,0.5]];portConstraint=eastwest;strokeColor=#006658;fontColor=#5C5C5C;rounded=1;" parent="h9BGPUR_kHKGgyNdzhqx-154" vertex="1">
          <mxGeometry y="30" width="180" height="30" as="geometry" />
        </mxCell>
        <mxCell id="h9BGPUR_kHKGgyNdzhqx-156" value="PK" style="shape=partialRectangle;connectable=0;fillColor=none;top=0;left=0;bottom=0;right=0;fontStyle=1;overflow=hidden;strokeColor=#006658;fontColor=#5C5C5C;rounded=1;" parent="h9BGPUR_kHKGgyNdzhqx-155" vertex="1">
          <mxGeometry width="30" height="30" as="geometry">
            <mxRectangle width="30" height="30" as="alternateBounds" />
          </mxGeometry>
        </mxCell>
        <mxCell id="h9BGPUR_kHKGgyNdzhqx-157" value="InvoiceID" style="shape=partialRectangle;connectable=0;fillColor=none;top=0;left=0;bottom=0;right=0;align=left;spacingLeft=6;fontStyle=5;overflow=hidden;strokeColor=#006658;fontColor=#5C5C5C;rounded=1;" parent="h9BGPUR_kHKGgyNdzhqx-155" vertex="1">
          <mxGeometry x="30" width="150" height="30" as="geometry">
            <mxRectangle width="150" height="30" as="alternateBounds" />
          </mxGeometry>
        </mxCell>
        <mxCell id="h9BGPUR_kHKGgyNdzhqx-158" value="" style="shape=partialRectangle;collapsible=0;dropTarget=0;pointerEvents=0;fillColor=none;top=0;left=0;bottom=0;right=0;points=[[0,0.5],[1,0.5]];portConstraint=eastwest;strokeColor=#006658;fontColor=#5C5C5C;rounded=1;" parent="h9BGPUR_kHKGgyNdzhqx-154" vertex="1">
          <mxGeometry y="60" width="180" height="30" as="geometry" />
        </mxCell>
        <mxCell id="h9BGPUR_kHKGgyNdzhqx-159" value="" style="shape=partialRectangle;connectable=0;fillColor=none;top=0;left=0;bottom=0;right=0;editable=1;overflow=hidden;strokeColor=#006658;fontColor=#5C5C5C;rounded=1;" parent="h9BGPUR_kHKGgyNdzhqx-158" vertex="1">
          <mxGeometry width="30" height="30" as="geometry">
            <mxRectangle width="30" height="30" as="alternateBounds" />
          </mxGeometry>
        </mxCell>
        <mxCell id="h9BGPUR_kHKGgyNdzhqx-160" value="InvoiceNumber" style="shape=partialRectangle;connectable=0;fillColor=none;top=0;left=0;bottom=0;right=0;align=left;spacingLeft=6;overflow=hidden;strokeColor=#006658;fontColor=#5C5C5C;rounded=1;" parent="h9BGPUR_kHKGgyNdzhqx-158" vertex="1">
          <mxGeometry x="30" width="150" height="30" as="geometry">
            <mxRectangle width="150" height="30" as="alternateBounds" />
          </mxGeometry>
        </mxCell>
        <mxCell id="h9BGPUR_kHKGgyNdzhqx-161" value="" style="shape=partialRectangle;collapsible=0;dropTarget=0;pointerEvents=0;fillColor=none;top=0;left=0;bottom=0;right=0;points=[[0,0.5],[1,0.5]];portConstraint=eastwest;strokeColor=#006658;fontColor=#5C5C5C;rounded=1;" parent="h9BGPUR_kHKGgyNdzhqx-154" vertex="1">
          <mxGeometry y="90" width="180" height="30" as="geometry" />
        </mxCell>
        <mxCell id="h9BGPUR_kHKGgyNdzhqx-162" value="" style="shape=partialRectangle;connectable=0;fillColor=none;top=0;left=0;bottom=0;right=0;editable=1;overflow=hidden;strokeColor=#006658;fontColor=#5C5C5C;rounded=1;" parent="h9BGPUR_kHKGgyNdzhqx-161" vertex="1">
          <mxGeometry width="30" height="30" as="geometry">
            <mxRectangle width="30" height="30" as="alternateBounds" />
          </mxGeometry>
        </mxCell>
        <mxCell id="h9BGPUR_kHKGgyNdzhqx-163" value="Date" style="shape=partialRectangle;connectable=0;fillColor=none;top=0;left=0;bottom=0;right=0;align=left;spacingLeft=6;overflow=hidden;strokeColor=#006658;fontColor=#5C5C5C;rounded=1;" parent="h9BGPUR_kHKGgyNdzhqx-161" vertex="1">
          <mxGeometry x="30" width="150" height="30" as="geometry">
            <mxRectangle width="150" height="30" as="alternateBounds" />
          </mxGeometry>
        </mxCell>
        <mxCell id="h9BGPUR_kHKGgyNdzhqx-164" value="" style="shape=partialRectangle;collapsible=0;dropTarget=0;pointerEvents=0;fillColor=none;top=0;left=0;bottom=0;right=0;points=[[0,0.5],[1,0.5]];portConstraint=eastwest;strokeColor=#006658;fontColor=#5C5C5C;rounded=1;" parent="h9BGPUR_kHKGgyNdzhqx-154" vertex="1">
          <mxGeometry y="120" width="180" height="30" as="geometry" />
        </mxCell>
        <mxCell id="h9BGPUR_kHKGgyNdzhqx-165" value="FK1" style="shape=partialRectangle;connectable=0;fillColor=none;top=0;left=0;bottom=0;right=0;editable=1;overflow=hidden;strokeColor=#006658;fontColor=#5C5C5C;rounded=1;" parent="h9BGPUR_kHKGgyNdzhqx-164" vertex="1">
          <mxGeometry width="30" height="30" as="geometry">
            <mxRectangle width="30" height="30" as="alternateBounds" />
          </mxGeometry>
        </mxCell>
        <mxCell id="h9BGPUR_kHKGgyNdzhqx-166" value="CarID" style="shape=partialRectangle;connectable=0;fillColor=none;top=0;left=0;bottom=0;right=0;align=left;spacingLeft=6;overflow=hidden;strokeColor=#006658;fontColor=#5C5C5C;rounded=1;" parent="h9BGPUR_kHKGgyNdzhqx-164" vertex="1">
          <mxGeometry x="30" width="150" height="30" as="geometry">
            <mxRectangle width="150" height="30" as="alternateBounds" />
          </mxGeometry>
        </mxCell>
        <mxCell id="h9BGPUR_kHKGgyNdzhqx-167" value="" style="shape=partialRectangle;collapsible=0;dropTarget=0;pointerEvents=0;fillColor=none;top=0;left=0;bottom=0;right=0;points=[[0,0.5],[1,0.5]];portConstraint=eastwest;strokeColor=#006658;fontColor=#5C5C5C;rounded=1;" parent="h9BGPUR_kHKGgyNdzhqx-154" vertex="1">
          <mxGeometry y="150" width="180" height="30" as="geometry" />
        </mxCell>
        <mxCell id="h9BGPUR_kHKGgyNdzhqx-168" value="FK2" style="shape=partialRectangle;connectable=0;fillColor=none;top=0;left=0;bottom=0;right=0;editable=1;overflow=hidden;strokeColor=#006658;fontColor=#5C5C5C;rounded=1;" parent="h9BGPUR_kHKGgyNdzhqx-167" vertex="1">
          <mxGeometry width="30" height="30" as="geometry">
            <mxRectangle width="30" height="30" as="alternateBounds" />
          </mxGeometry>
        </mxCell>
        <mxCell id="h9BGPUR_kHKGgyNdzhqx-169" value="CustomerID" style="shape=partialRectangle;connectable=0;fillColor=none;top=0;left=0;bottom=0;right=0;align=left;spacingLeft=6;overflow=hidden;strokeColor=#006658;fontColor=#5C5C5C;rounded=1;" parent="h9BGPUR_kHKGgyNdzhqx-167" vertex="1">
          <mxGeometry x="30" width="150" height="30" as="geometry">
            <mxRectangle width="150" height="30" as="alternateBounds" />
          </mxGeometry>
        </mxCell>
        <mxCell id="h9BGPUR_kHKGgyNdzhqx-170" value="" style="shape=partialRectangle;collapsible=0;dropTarget=0;pointerEvents=0;fillColor=none;top=0;left=0;bottom=0;right=0;points=[[0,0.5],[1,0.5]];portConstraint=eastwest;strokeColor=#006658;fontColor=#5C5C5C;rounded=1;" parent="h9BGPUR_kHKGgyNdzhqx-154" vertex="1">
          <mxGeometry y="180" width="180" height="30" as="geometry" />
        </mxCell>
        <mxCell id="h9BGPUR_kHKGgyNdzhqx-171" value="FK3" style="shape=partialRectangle;connectable=0;fillColor=none;top=0;left=0;bottom=0;right=0;editable=1;overflow=hidden;strokeColor=#006658;fontColor=#5C5C5C;rounded=1;" parent="h9BGPUR_kHKGgyNdzhqx-170" vertex="1">
          <mxGeometry width="30" height="30" as="geometry">
            <mxRectangle width="30" height="30" as="alternateBounds" />
          </mxGeometry>
        </mxCell>
        <mxCell id="h9BGPUR_kHKGgyNdzhqx-172" value="SalespersonID" style="shape=partialRectangle;connectable=0;fillColor=none;top=0;left=0;bottom=0;right=0;align=left;spacingLeft=6;overflow=hidden;strokeColor=#006658;fontColor=#5C5C5C;rounded=1;" parent="h9BGPUR_kHKGgyNdzhqx-170" vertex="1">
          <mxGeometry x="30" width="150" height="30" as="geometry">
            <mxRectangle width="150" height="30" as="alternateBounds" />
          </mxGeometry>
        </mxCell>
        <mxCell id="h9BGPUR_kHKGgyNdzhqx-173" value="Salesperson" style="shape=table;startSize=30;container=1;collapsible=1;childLayout=tableLayout;fixedRows=1;rowLines=0;fontStyle=1;align=center;resizeLast=1;swimlaneFillColor=none;fillColor=#21C0A5;strokeColor=#006658;fontColor=#5C5C5C;rounded=1;" parent="h9BGPUR_kHKGgyNdzhqx-1" vertex="1">
          <mxGeometry x="225" y="230" width="180" height="140" as="geometry" />
        </mxCell>
        <mxCell id="h9BGPUR_kHKGgyNdzhqx-174" value="" style="shape=partialRectangle;collapsible=0;dropTarget=0;pointerEvents=0;fillColor=none;top=0;left=0;bottom=1;right=0;points=[[0,0.5],[1,0.5]];portConstraint=eastwest;strokeColor=#006658;fontColor=#5C5C5C;rounded=1;" parent="h9BGPUR_kHKGgyNdzhqx-173" vertex="1">
          <mxGeometry y="30" width="180" height="30" as="geometry" />
        </mxCell>
        <mxCell id="h9BGPUR_kHKGgyNdzhqx-175" value="PK" style="shape=partialRectangle;connectable=0;fillColor=none;top=0;left=0;bottom=0;right=0;fontStyle=1;overflow=hidden;strokeColor=#006658;fontColor=#5C5C5C;rounded=1;" parent="h9BGPUR_kHKGgyNdzhqx-174" vertex="1">
          <mxGeometry width="30" height="30" as="geometry">
            <mxRectangle width="30" height="30" as="alternateBounds" />
          </mxGeometry>
        </mxCell>
        <mxCell id="h9BGPUR_kHKGgyNdzhqx-176" value="SalespersonID" style="shape=partialRectangle;connectable=0;fillColor=none;top=0;left=0;bottom=0;right=0;align=left;spacingLeft=6;fontStyle=5;overflow=hidden;strokeColor=#006658;fontColor=#5C5C5C;rounded=1;" parent="h9BGPUR_kHKGgyNdzhqx-174" vertex="1">
          <mxGeometry x="30" width="150" height="30" as="geometry">
            <mxRectangle width="150" height="30" as="alternateBounds" />
          </mxGeometry>
        </mxCell>
        <mxCell id="h9BGPUR_kHKGgyNdzhqx-177" value="" style="shape=partialRectangle;collapsible=0;dropTarget=0;pointerEvents=0;fillColor=none;top=0;left=0;bottom=0;right=0;points=[[0,0.5],[1,0.5]];portConstraint=eastwest;strokeColor=#006658;fontColor=#5C5C5C;rounded=1;" parent="h9BGPUR_kHKGgyNdzhqx-173" vertex="1">
          <mxGeometry y="60" width="180" height="40" as="geometry" />
        </mxCell>
        <mxCell id="h9BGPUR_kHKGgyNdzhqx-178" value="" style="shape=partialRectangle;connectable=0;fillColor=none;top=0;left=0;bottom=0;right=0;editable=1;overflow=hidden;strokeColor=#006658;fontColor=#5C5C5C;rounded=1;" parent="h9BGPUR_kHKGgyNdzhqx-177" vertex="1">
          <mxGeometry width="30" height="40" as="geometry">
            <mxRectangle width="30" height="40" as="alternateBounds" />
          </mxGeometry>
        </mxCell>
        <mxCell id="h9BGPUR_kHKGgyNdzhqx-179" value="LastName" style="shape=partialRectangle;connectable=0;fillColor=none;top=0;left=0;bottom=0;right=0;align=left;spacingLeft=6;overflow=hidden;strokeColor=#006658;fontColor=#5C5C5C;rounded=1;" parent="h9BGPUR_kHKGgyNdzhqx-177" vertex="1">
          <mxGeometry x="30" width="150" height="40" as="geometry">
            <mxRectangle width="150" height="40" as="alternateBounds" />
          </mxGeometry>
        </mxCell>
        <mxCell id="h9BGPUR_kHKGgyNdzhqx-180" value="" style="shape=partialRectangle;collapsible=0;dropTarget=0;pointerEvents=0;fillColor=none;top=0;left=0;bottom=0;right=0;points=[[0,0.5],[1,0.5]];portConstraint=eastwest;strokeColor=#006658;fontColor=#5C5C5C;rounded=1;" parent="h9BGPUR_kHKGgyNdzhqx-173" vertex="1">
          <mxGeometry y="100" width="180" height="30" as="geometry" />
        </mxCell>
        <mxCell id="h9BGPUR_kHKGgyNdzhqx-181" value="" style="shape=partialRectangle;connectable=0;fillColor=none;top=0;left=0;bottom=0;right=0;editable=1;overflow=hidden;strokeColor=#006658;fontColor=#5C5C5C;rounded=1;" parent="h9BGPUR_kHKGgyNdzhqx-180" vertex="1">
          <mxGeometry width="30" height="30" as="geometry">
            <mxRectangle width="30" height="30" as="alternateBounds" />
          </mxGeometry>
        </mxCell>
        <mxCell id="h9BGPUR_kHKGgyNdzhqx-182" value="FirstName" style="shape=partialRectangle;connectable=0;fillColor=none;top=0;left=0;bottom=0;right=0;align=left;spacingLeft=6;overflow=hidden;strokeColor=#006658;fontColor=#5C5C5C;rounded=1;" parent="h9BGPUR_kHKGgyNdzhqx-180" vertex="1">
          <mxGeometry x="30" width="150" height="30" as="geometry">
            <mxRectangle width="150" height="30" as="alternateBounds" />
          </mxGeometry>
        </mxCell>
        <mxCell id="h9BGPUR_kHKGgyNdzhqx-183" style="edgeStyle=orthogonalEdgeStyle;orthogonalLoop=1;jettySize=auto;html=1;exitX=1;exitY=0.5;exitDx=0;exitDy=0;startArrow=ERzeroToOne;startFill=0;strokeWidth=1;endSize=6;targetPerimeterSpacing=0;jumpSize=13;endArrow=ERmandOne;endFill=0;strokeColor=#006658;fontColor=#5C5C5C;" parent="h9BGPUR_kHKGgyNdzhqx-1" source="h9BGPUR_kHKGgyNdzhqx-155" target="h9BGPUR_kHKGgyNdzhqx-9" edge="1">
          <mxGeometry relative="1" as="geometry" />
        </mxCell>
        <mxCell id="h9BGPUR_kHKGgyNdzhqx-184" style="edgeStyle=orthogonalEdgeStyle;jumpSize=13;orthogonalLoop=1;jettySize=auto;html=1;exitX=1;exitY=0.5;exitDx=0;exitDy=0;entryX=0;entryY=0.5;entryDx=0;entryDy=0;startArrow=ERzeroToMany;startFill=1;endArrow=ERmandOne;endFill=0;endSize=6;sourcePerimeterSpacing=0;targetPerimeterSpacing=0;strokeWidth=1;strokeColor=#006658;fontColor=#5C5C5C;" parent="h9BGPUR_kHKGgyNdzhqx-1" source="h9BGPUR_kHKGgyNdzhqx-123" target="h9BGPUR_kHKGgyNdzhqx-28" edge="1">
          <mxGeometry relative="1" as="geometry" />
        </mxCell>
        <mxCell id="h9BGPUR_kHKGgyNdzhqx-185" style="edgeStyle=orthogonalEdgeStyle;jumpSize=13;orthogonalLoop=1;jettySize=auto;html=1;startArrow=ERoneToMany;startFill=0;endArrow=ERmandOne;endFill=0;endSize=6;sourcePerimeterSpacing=0;targetPerimeterSpacing=0;strokeWidth=1;strokeColor=#006658;fontColor=#5C5C5C;" parent="h9BGPUR_kHKGgyNdzhqx-1" source="h9BGPUR_kHKGgyNdzhqx-170" target="h9BGPUR_kHKGgyNdzhqx-25" edge="1">
          <mxGeometry relative="1" as="geometry" />
        </mxCell>
        <mxCell id="h9BGPUR_kHKGgyNdzhqx-186" style="edgeStyle=orthogonalEdgeStyle;jumpSize=13;orthogonalLoop=1;jettySize=auto;html=1;exitX=0;exitY=0.5;exitDx=0;exitDy=0;startArrow=ERoneToMany;startFill=0;endArrow=ERmandOne;endFill=0;endSize=6;sourcePerimeterSpacing=0;targetPerimeterSpacing=0;strokeWidth=1;strokeColor=#006658;fontColor=#5C5C5C;" parent="h9BGPUR_kHKGgyNdzhqx-1" source="h9BGPUR_kHKGgyNdzhqx-155" target="h9BGPUR_kHKGgyNdzhqx-174" edge="1">
          <mxGeometry relative="1" as="geometry" />
        </mxCell>
        <mxCell id="h9BGPUR_kHKGgyNdzhqx-187" style="edgeStyle=orthogonalEdgeStyle;jumpSize=13;orthogonalLoop=1;jettySize=auto;html=1;startArrow=ERoneToMany;startFill=0;endArrow=ERmandOne;endFill=0;endSize=6;sourcePerimeterSpacing=0;targetPerimeterSpacing=0;strokeWidth=1;exitX=0;exitY=0.5;exitDx=0;exitDy=0;strokeColor=#006658;fontColor=#5C5C5C;" parent="h9BGPUR_kHKGgyNdzhqx-1" source="h9BGPUR_kHKGgyNdzhqx-97" target="h9BGPUR_kHKGgyNdzhqx-144" edge="1">
          <mxGeometry relative="1" as="geometry" />
        </mxCell>
        <mxCell id="h9BGPUR_kHKGgyNdzhqx-188" style="edgeStyle=orthogonalEdgeStyle;jumpSize=13;orthogonalLoop=1;jettySize=auto;html=1;startArrow=ERzeroToMany;startFill=1;endArrow=ERmandOne;endFill=0;endSize=6;sourcePerimeterSpacing=0;targetPerimeterSpacing=0;strokeWidth=1;strokeColor=#006658;fontColor=#5C5C5C;" parent="h9BGPUR_kHKGgyNdzhqx-1" source="h9BGPUR_kHKGgyNdzhqx-97" target="h9BGPUR_kHKGgyNdzhqx-56" edge="1">
          <mxGeometry relative="1" as="geometry" />
        </mxCell>
        <mxCell id="h9BGPUR_kHKGgyNdzhqx-189" style="edgeStyle=orthogonalEdgeStyle;jumpSize=13;orthogonalLoop=1;jettySize=auto;html=1;exitX=1;exitY=0.5;exitDx=0;exitDy=0;startArrow=ERoneToMany;startFill=0;endArrow=ERmandOne;endFill=0;endSize=6;sourcePerimeterSpacing=0;targetPerimeterSpacing=0;strokeWidth=1;strokeColor=#006658;fontColor=#5C5C5C;" parent="h9BGPUR_kHKGgyNdzhqx-1" source="h9BGPUR_kHKGgyNdzhqx-80" target="h9BGPUR_kHKGgyNdzhqx-63" edge="1">
          <mxGeometry relative="1" as="geometry" />
        </mxCell>
      </root>
    </mxGraphModel>
  </diagram>
</mxfile>
